<svg width="706" height="471" xmlns="http://www.w3.org/2000/svg" xmlns:xlink="http://www.w3.org/1999/xlink" overflow="hidden"><defs><clipPath id="clip0"><rect x="156" y="585" width="706" height="471"/></clipPath><clipPath id="clip1"><path d="M530.225 613.202C486.133 613.5 439.908 614.306 401.387 634.607L401.387 634.607C373.721 649.187 352.619 672.557 332.394 695.613L332.394 695.613C311.103 719.884 289.741 744.914 277.792 774.358L277.792 774.358C256.842 825.983 267.23 898.154 278.085 952.49L278.085 952.49 753.542 966.072C765.308 882.812 762.42 812.856 732.48 733.775L732.48 733.775C722.698 707.935 684.554 660.068 662.429 642.313L662.429 642.313C629.548 615.927 583.346 613.165 539.763 613.165L539.763 613.165C536.568 613.165 533.385 613.18 530.225 613.202"/></clipPath></defs><g clip-path="url(#clip0)" transform="translate(-156 -585)"><path d="M0 0 705.998 0 705.998 470.665 0 470.665Z" fill="#F6F2E6" transform="matrix(1 0 0 -1.00021 156 1055.88)"/><path d="M0 0C-10.8564 54.3251-21.2468 126.481-0.292754 178.095 11.6593 207.533 33.0257 232.559 54.3204 256.824 74.5487 279.876 95.6552 303.24 123.327 317.818 161.854 338.114 208.089 338.919 252.189 339.218 298.473 339.532 349.119 338.427 384.417 310.113 406.546 292.361 444.7 244.505 454.484 218.669 484.429 139.605 487.317 69.6641 475.549-13.5787Z" fill="#FFFFFF" transform="matrix(1 0 0 -1.00021 278.04 952.491)"/><g clip-path="url(#clip1)"><path d="M0 0C7.62478-36.8606 6.17419-76.3203 4.68312-114.077 0.97616-207.944-2.72986-301.811-6.43682-395.679L5.1359-395.629C13.5862-274.761 15.1178-121.076 9.7183 0Z" fill="#F6F2E6" transform="matrix(1 0 0 -1.00021 671.742 599.853)"/><path d="M0 0C0.755889 127.614 0.941331 256.69 0.531852 384.277L-10.188 384.153C-17.393 275.443-21.7099 120.796-16.4855 12.1912Z" fill="#F6F2E6" transform="matrix(1 0 0 -1.00021 457.991 984.358)"/><path d="M0 0C2.66773 127.534 5.08695 256.517 7.19459 384L2.02669 383.645C-3.40574 274.861-17.8147 122.332-17.2584 13.9213Z" fill="#F6F2E6" transform="matrix(1 0 0 -1.00021 582.607 983.819)"/><path d="M0 0C2.66773 127.534 5.08789 256.517 7.19459 384L2.02763 383.645C-3.40574 274.861-17.8137 122.332-17.2574 13.9213Z" fill="#F6F2E6" transform="matrix(1 0 0 -1.00021 381.889 983.819)"/><path d="M0 0C15.9546 125.049 20.8646 265.288 14.6396 391.364L25.0987 391.364C24.1291 265.741 28.4461 132.356 38.0326 7.16635Z" fill="#F6F2E6" transform="matrix(1 0 0 -1.00021 314.654 991.299)"/><path d="M0 0C15.9556 125.049 20.8655 265.288 14.6405 391.364L25.0987 391.364C24.1291 265.741 28.447 132.356 38.0335 7.16635Z" fill="#F6F2E6" transform="matrix(1 0 0 -1.00021 609.399 991.299)"/><path d="M0 0C15.9556 125.049 20.8655 265.288 14.6396 391.364L25.0987 391.364C24.1291 265.741 28.447 132.356 38.0326 7.16635Z" fill="#F6F2E6" transform="matrix(1 0 0 -1.00021 486.363 991.299)"/></g><path d="M0 0C16.2897-0.72106 32.9522-1.55884 47.9081-5.006 62.863-8.45315 76.021-15.0669 78.1766-23.0617 80.8961-33.1527 66.0956-41.9862 50.6944-48.472-15.3117-76.2676-111.776-85.6479-196.731-72.5343-234.596-66.6886-270.594-56.6738-309.854-54.8391-334.545-53.6841-359.105-55.8548-383.768-56.4262-408.432-56.9985-434.742-55.7249-455.32-48.6386-472.549-42.7044-484.115-32.876-485.859-22.688-487.766-11.536-479.344 2.13965-454.186 3.32478-422.872 4.79985-390.211 4.48732-358.674 5.00317-282.603 6.2495-206.336 6.02264-130.109 4.32636-86.7116 3.36055-43.3276 1.91843 0 0" fill="#E9C9AF" transform="matrix(1 0 0 -1.00021 712.807 955.816)"/><path d="M0 0C1.35834 0.987456-0.900854 2.4597-2.70727 2.81929L-20.7658 6.41517C-26.9023 7.63702-36.9934 4.54569-28.3802 0.270162-22.7407-2.52936-6.65992-0.0583625 0 0" fill="#C0917E" transform="matrix(1 0 0 -1.00021 434.972 1002.75)"/><path d="M0 0C0.667404 2.23849 3.36149 3.70696 5.85414 4.96081 7.81022 5.94451 9.76725 6.92914 11.7243 7.91283 14.4193 9.27023 17.5841 10.686 20.6669 9.97717 23.6877 9.28152 25.3886 6.81053 28.0808 5.54632 30.534 4.39319 33.5566 4.34424 36.3589 3.86228 39.1603 3.37938 42.1697 2.11141 42.6734-0.0715412Z" fill="#C0917E" transform="matrix(1 0 0 -1.00021 593.7 1014.77)"/><path d="M0 0C0-5.58868-122.014-10.1174-272.527-10.1174-423.038-10.1174-545.052-5.58868-545.052 0-545.052 5.58774-423.038 10.1165-272.527 10.1165-122.014 10.1165 0 5.58774 0 0" fill="#E1B69A" transform="matrix(1 0 0 -1.00021 780.506 977.947)"/><path d="M0 0 0.726708-8.58306 1.30468-15.579 1.87513-23.5643 39.9877-23.5643 38.5343-19.3669C38.0458-17.9992 37.3699-16.7265 36.5406-15.579 34.7681-13.1259 32.2698-11.2395 29.3526-10.2332L28.0526-9.79267C26.8957-9.38507 25.7821-8.86546 24.7448-8.22064 24.6497-8.17452 24.5537-8.12745 24.4577-8.06344 23.4843-7.46758 22.5882-6.77476 21.7513-6.00475 19.9506-4.33765 18.4868-2.31003 17.5031-1.67214e-15Z" fill="#AA6747" transform="matrix(1 0 0 -1.00021 306.53 957.206)"/><path d="M0 0 0.577977-6.99597 1.14842-14.9813 39.261-14.9813 37.8076-10.7839C37.3191-9.41613 36.6432-8.14251 35.8139-6.99597 34.0414-4.54286 31.5431-2.65644 28.6259-1.65015L27.3259-1.20961C26.169-0.802014 25.0554-0.282399 24.0181 0.362412L20.9296-11.0192 9.32482-11.0192C7.45346-4.94387 3.53282-0.471607 0 0" fill="#602D13" transform="matrix(1 0 0 -1.00021 307.257 965.79)"/><path d="M0 0 6.89996-51.439 11.0682-127.272-6.38599-127.272C-8.6273-106.844-19.2785-84.9165-14.0296-55.3154L-33.0144-3.00096Z" fill="#AA6747" transform="matrix(1 0 0 -1.00021 312.916 829.907)"/><path d="M0 0-1.86195-58.0509C-1.86195-58.0509-22.8433-125.127-19.0318-132.88L-39.8183-132.88C-34.4772-109.104-40.5572-89.947-24.853-56.204L-31.3906-12.9132Z" fill="#CE8E68" transform="matrix(1 0 0 -1.00021 296.442 826.273)"/><path d="M0 0C-15.6958-4.3-15.3729-14.9521-14.9003-24.7881-14.4278-34.624-18.0453-37.818-18.0453-37.818L0-37.3388Z" fill="#824D35" transform="matrix(1 0 0 -1.00021 288.229 705.861)"/><path d="M0 0C6.17231-6.03299 17.4287-30.6328 26.5389-52.0368L19.7435-51.937C9.54698-51.7883 0.462193-45.4616-3.21465-35.9494L-13.5175-9.29C-14.7139-6.52248-14.3271-3.32666-12.5056-0.924387-9.46414 3.08286-3.59777 3.51681 0 0" fill="#CE8E68" transform="matrix(1 0 0 -1.00021 313.835 750.124)"/><path d="M0 0C-0.118608-2.9313-0.287106-5.87296-0.49514-8.79486L-26.3253-8.58682-42.5585-8.44845-35.2095 5.04083-35.2001 5.05118-32.1493 10.6568C-32.1493 10.6568-39.0728 22.4733-47.0261 35.6162-47.541 36.4577-47.9269 37.3294-48.1848 38.2105-50.2049 44.7876-45.8174 52.0076-38.5277 52.7898L-34.9921 53.1363-5.97274 56.0092C-3.51587 56.2464-1.34704 54.4438-1.14937 51.9878-0.970512 49.69-0.743652 46.5902-0.534676 42.8861-0.257925 38.2896 0 32.7734 0.158144 26.682 0.237215 23.6312 0.287106 20.4429 0.296519 17.1548 0.306874 17.1049 0.306874 17.0456 0.296519 16.9863 0.326642 11.5087 0.24757 5.77412 0 0" fill="#5E6F64" transform="matrix(1 0 0 -1.00021 313.735 803.691)"/><path d="M0 0C17.8909-15.6788 13.5081-24.9377 2.60655-30.0482Z" fill="#5E6F64" transform="matrix(1 0 0 -1.00021 309.589 757.419)"/><path d="M0 0-41.1625-0.732355-41.1719-0.732355-53.1956-0.950744C-53.1956-0.950744-70.6676 47.1042-41.6972 80.2343L-41.6878 80.2447-31.2578 78.9268-6.5366 75.8167-6.48765 75.1926Z" fill="#5E6F64" transform="matrix(1 0 0 -1.00021 320.223 878.9)"/><path d="M0 0C0.118608-6.06123-4.87233-9.36907-7.6662-10.7462-8.62636-11.2216-9.32953-11.4588-9.46885-11.5087-9.48862-11.5181-9.49803-11.5181-9.49803-11.5181L-29.4448-14.4306-32.7329-23.9983-35.9127-33.2685C-35.9127-33.2685-35.2886-34.3972-34.288-36.3194-28.9205-46.61-12.6675-79.5312-23.6905-81.5814-36.7646-84.0176-46.401-65.5166-46.401-65.5166-46.401-65.5166-49.5808-85.791-42.6376-103.657L-42.6479-103.657-54.6716-103.876C-54.6716-103.876-72.1427-55.8209-43.1723-22.6908L-43.1628-22.6804-40.112-17.0748C-40.112-17.0748-47.0355-5.25922-54.9888 7.88365-55.5037 8.72614-55.8896 9.59687-56.1466 10.4789L-42.9548 25.4046-28.9102 19.5213-36.6065 7.46852-34.1298-2.44652C-26.7413-3.40668-17.4118-2.49547-10.3697-1.4553-9.47826-1.32728-8.61694-1.18796-7.80458-1.04958-3.14969-0.287106-0.00941331 0.426423-0.00941331 0.426423 0 0.277693 0 0.138376 0 0" fill="#445859" transform="matrix(1 0 0 -1.00021 321.698 775.953)"/><path d="M0 0C-3.88581-7.70668-6.47542-17.8683-8.16793-41.0684L10.7415-42.4258 15.7974-4.41296C16.0337-1.40823 14.632 1.49013 12.1319 3.17323 7.95707 5.98122 2.26578 4.49109 0 0" fill="#CE8E68" transform="matrix(1 0 0 -1.00021 266.117 757.561)"/><path d="M0 0C12.6251-11.8259 23.2368-12.307 23.2368-12.307 23.2368-12.307 26.8044-5.13684 26.5041 2.62067Z" fill="#CE8E68" transform="matrix(1 0 0 -1.00021 278.744 750.542)"/><path d="M0 0C8.48045-19.5853 40.9206-34.6899 40.9206-34.6899L42.2159-23.8326 18.3729 6.44435Z" fill="#CE8E68" transform="matrix(1 0 0 -1.00021 257.949 798.638)"/><path d="M0 0 5.99816-4.08444 0.440543-10.3377C-0.418892-11.3063-1.86384-11.4852-2.93507-10.7566-4.00442-10.0271-4.36778-8.61694-3.78227-7.46287Z" fill="#AA6747" transform="matrix(1 0 0 -1.00021 294.449 840.131)"/><path d="M0 0C-0.483844 0-0.959216-0.0282399-1.42518-0.0847198-4.21434-0.421716-6.67498-1.85442-8.00978-3.91688-8.38632-4.49862-8.97841-5.6414-8.71861-6.76346-8.30066-8.568-6.01605-9.34083-4.69159-9.63923-1.29056-10.4092 2.34768-10.3208 5.8306-9.3813 8.97936-8.53128 12.3098-7.09575 12.6543-5.80142 12.7099-5.59056 12.7287-5.25639 12.2448-4.77255 10.8084-3.34172 8.27147-2.2526 6.41894-1.45718L6.61285-0.983691 6.41141-1.45342C4.1588-0.486668 2.0088 0 0 0M0-11.1802C-1.66521-11.1802-3.31537-10.9995-4.91751-10.637-7.60784-10.028-9.31165-8.73461-9.71454-6.99409-10.0412-5.57927-9.43496-4.23787-8.86828-3.36243-7.37062-1.04676-4.63417 0.557268-1.54849 0.930035 1.04111 1.2435 3.85287 0.75683 6.81429-0.513967L6.61285-0.983691 6.82183-0.517732C8.75061-1.3461 11.392-2.47947 12.9659-4.04961 13.7585-4.83938 13.7707-5.58115 13.6427-6.065 13.0553-8.26959 8.16981-9.80867 6.097-10.3688 4.09197-10.9091 2.0361-11.1802 0-11.1802" transform="matrix(1 0 0 -1.00021 279.059 820.294)"/><path d="M0 0 2.73174 0.616572C4.01289 0.906502 4.81585 2.17824 4.52686 3.45939L-1.02134 28.0187C-1.31127 29.2989-2.58301 30.1028-3.86322 29.8138L-6.59591 29.1963C-7.87612 28.9064-8.67907 27.6337-8.39008 26.3544L-2.84188 1.79418C-2.55289 0.513967-1.28021-0.28993 0 0" transform="matrix(1 0 0 -1.00021 297.418 854.099)"/><path d="M0 0C-0.725766 0-1.38093 0.499847-1.54755 1.23785L-35.893 153.278C-36.0869 154.133-35.5503 154.983-34.6946 155.176-33.8361 155.371-32.9889 154.832-32.796 153.976L1.55037 1.93726C1.74334 1.08159 1.20679 0.232509 0.351116 0.0395359 0.23345 0.0131786 0.115784 0 0 0" transform="matrix(1 0 0 -1.00021 327.816 983.928)"/><path d="M0 0 9.1921-21.7033-4.61629-22.0441-7.39604-9.90939C-8.5134-5.0333-4.99376-0.316287 0 0" fill="#CE8E68" transform="matrix(1 0 0 -1.00021 300.165 822.475)"/><path d="M0 0-10.4742-3.70131-18.5565 0.195797C-19.2314 0.521497-19.6145 1.25009-19.4997 1.99092-19.3547 2.92001-18.4849 3.55541-17.5558 3.41138L-11.5991 2.48511-5.11707 9.74842Z" fill="#CE8E68" transform="matrix(1 0 0 -1.00021 308.646 844.758)"/><path d="M0 0-8.28842-5.39194-16.7547-2.42204C-17.4626-2.17447-17.9248-1.49295-17.8928-0.743652-17.8533 0.195797-17.0597 0.924387-16.1203 0.884851L-10.0967 0.62975-4.46662 8.57176Z" fill="#CE8E68" transform="matrix(1 0 0 -1.00021 306.012 838.946)"/><path d="M0 0 0.590214-0.414186C1.23597-0.868848 1.39223-1.75935 0.938507-2.4051L-1.33951-5.64799C-1.79229-6.29468-2.68373-6.45-3.32949-5.99628L-3.9197-5.58209C-4.56545-5.12837-4.72172-4.23693-4.26799-3.59118L-1.99092-0.348292C-1.53719 0.296519-0.645753 0.45278 0 0" fill="#CE8E68" transform="matrix(1 0 0 -1.00021 295.302 830.35)"/><path d="M0 0 5.82966-0.0677758 1.67745-8.87581C1.26232-9.79361 0.180736-10.2021-0.737062-9.78608-1.65486-9.37095-2.06246-8.2903-1.64733-7.37156Z" fill="#CE8E68" transform="matrix(1 0 0 -1.00021 303.527 844.114)"/><path d="M0 0 0.160026 0.717294C0.336055 1.50331 1.11548 1.99656 1.90055 1.82148L8.52658 0.336996C9.31165 0.161909 9.80584-0.617513 9.62982-1.40258L9.46979-2.12082C9.29376-2.90589 8.51434-3.39915 7.72927-3.22406L1.10324-1.74052C0.31817-1.56449-0.176029-0.786011 0 0" fill="#CE8E68" transform="matrix(1 0 0 -1.00021 295.76 850.899)"/><path d="M0 0 0.221213 0.701292C0.463135 1.46942 1.28115 1.8949 2.04928 1.65298L8.46633-0.371826C9.23352-0.613748 9.65994-1.43176 9.41708-2.19989L9.1968-2.90118C8.95394-3.66837 8.13592-4.09479 7.36874-3.85193L0.950744-1.82712C0.18356-1.58614-0.241922-0.766243 0 0" fill="#CE8E68" transform="matrix(1 0 0 -1.00021 287.543 834.389)"/><path d="M0 0 2.36745-28.0818-16.8479-28.9582-17.3939-1.31316Z" fill="#CE8E68" transform="matrix(1 0 0 -1.00021 300.299 729.206)"/><path d="M0 0-3.32855-0.282399C-8.67719-0.735179-13.3801 3.23441-13.8329 8.58211L-14.4626 16.0215-1.45059 17.1228Z" fill="#AA6747" transform="matrix(1 0 0 -1.00021 301.748 746.332)"/><path d="M0 0C2.80893-6.10641 12.4773-2.67997 18.178-9.16574 19.7491 2.87012 7.55983 5.02671 9.74183 16.3236L-0.668345 8.33737Z" fill="#824D35" transform="matrix(1 0 0 -1.00021 301.903 748.252)"/><path d="M0 0-17.4702-0.879203-19.5204 17.5163C-19.5674 18.2449-19.5684 18.9593-19.51 19.6569-19.4168 21.0971-19.1128 22.4771-18.6365 23.7893-17.8279 25.976-16.5439 27.9509-14.8777 29.5484-12.6995 31.6428-9.89056 33.0915-6.72204 33.5048-2.22907 34.0837 1.67275 33.9783 4.61535 32.2867 7.53159 30.63 9.51686 27.4229 10.2106 21.8163 10.2935 21.1225 10.4704 20.425 10.5241 19.6964L11.0296 12.7579C11.5049 6.19113 6.56672 0.475372 0 0" fill="#CE8E68" transform="matrix(1 0 0 -1.00021 303.302 740.326)"/><path d="M0 0-5.27334 0.348292C-11.8391 19.2352 0.843433 19.6851 0.843433 19.6851 0.843433 19.6851 2.78446 16.2954 3.62318 12.129 3.62318 12.129 5.72423 3.72673 0 0" fill="#824D35" transform="matrix(1 0 0 -1.00021 287.062 727.895)"/><path d="M0 0C1.27174-2.75245 0.241922-6.02828-2.29967-7.31602-4.84127-8.60377-7.9326-7.41675-9.20339-4.66429-10.4751-1.9109-9.44532 1.36399-6.90372 2.65173-4.36213 3.94041-1.27174 2.75245 0 0" transform="matrix(1 0 0 -1.00021 303.059 722.817)"/><path d="M0 0-3.8491-8.20464C-4.90057-7.79799-5.81931-6.96397-6.35587-5.79766-6.36246-5.78165-6.36905-5.77224-6.3681-5.75718L-3.29937 0.803897C-2.14623 1.01381-0.952627 0.711646 0 0" fill="#403634" transform="matrix(1 0 0 -1.00021 300.901 721.336)"/><path d="M0 0-0.000941331-0.00753065-2.6988-5.74965C-3.32949-5.9831-3.98371-6.04146-4.6257-5.95298L-0.988397 1.80171C-0.705057 1.47883-0.456546 1.09759-0.260749 0.673052-0.15532 0.451839-0.0734238 0.225919 0 0" fill="#403634" transform="matrix(1 0 0 -1.00021 302.633 723.839)"/><path d="M0 0C8.39667 6.63168 6.24856 20.201 6.24856 20.201 6.24856 20.201 10.4215 12.3437 25.1345 15.1046 23.8966 27.2242 2.55383 26.8844-3.83028 17.8674Z" fill="#824D35" transform="matrix(1 0 0 -1.00021 287.062 727.895)"/><path d="M0 0-0.422658 0.970512 6.41141 3.95077 8.6273 4.65865 8.94735 3.64954 6.78323 2.96143Z" transform="matrix(1 0 0 -1.00021 285.519 728.265)"/><path d="M0 0C-1.03264-1.54378-2.7901-2.64702-4.65018-2.65738-0.970512 0.500788 0.55162 5.86732-0.572329 10.589 0.327583 8.96429 1.01193 7.18518 1.19643 5.33546 1.37999 3.48575 1.03264 1.5532 0 0M-5.76471 23.8863-8.68754 25.6146C-8.68754 25.6146-9.88398 20.6773-19.093 13.1551-28.3021 5.64234-25.3585-7.44122-25.3585-7.44122-20.8307-3.37279 2.19707-8.73932 3.51587 0.582684 4.82432 9.91504-5.45784 17.4476-5.76471 23.8863" fill="#824D35" transform="matrix(1 0 0 -1.00021 289.274 757.012)"/><path d="M0 0C-4.13809 6.5639-7.45534 6.787-10.0007 5.20368-13.1655 3.23347-12.8548-3.05556-8.92476-5.67811-5.48984-7.97025-0.818017-5.59056-0.220271-1.50331Z" fill="#CE8E68" transform="matrix(1 0 0 -1.00021 289.585 729.947)"/><path d="M0 0-3.04991 2.59148-2.25072 3.52999 0.798249 0.939448Z" fill="#AA6747" transform="matrix(1 0 0 -1.00021 284.99 733.029)"/><path d="M0 0C-3.26077-1.25856-4.10232 0.419834-1.75182 1.76029 0.776598 3.20053 4.05714 1.56543 0 0" transform="matrix(1 0 0 -1.00021 296.812 717.272)"/><path d="M0 0C-3.49328-0.112018-3.73332 1.75088-1.07312 2.23943 1.78947 2.76563 4.34613 0.139317 0 0" transform="matrix(1 0 0 -1.00021 309.318 715.759)"/><path d="M0 0C-0.365236 0-0.731414 0.0611865-1.07782 0.186384-2.23378 0.606217-3.0838 1.71134-3.19394 2.93601L-2.1387 3.03014C-2.06622 2.21966-1.48166 1.46-0.716353 1.18137 0.0480079 0.901795 0.984632 1.11265 1.56073 1.68781L2.30908 0.939448C1.70004 0.331349 0.850963 0 0 0" fill="#824D35" transform="matrix(1 0 0 -1.00021 302.346 734.714)"/><path d="M0 0C0.993104-2.86447-0.354882-6.02264-3.01132-7.05245-5.66775-8.08321-8.62636-6.59591-9.61946-3.73144-10.6126-0.866966-9.26458 2.2912-6.60814 3.32102-3.95171 4.35177-0.993104 2.86447 0 0" transform="matrix(1 0 0 -1.00021 316.036 721.348)"/><path d="M0 0-0.158144 1.04582 1.72264 1.33104 1.88078 0.284282Z" transform="matrix(1 0 0 -1.00021 314.964 722.216)"/><path d="M0 0-4.6417-7.78481C-5.64704-7.27555-6.47918-6.35493-6.89807-5.14061-6.90278-5.12366-6.90843-5.11519-6.9056-5.09919L-3.20335 1.12677C-2.03516 1.22091-0.878262 0.802014 0 0" fill="#403634" transform="matrix(1 0 0 -1.00021 314.035 719.66)"/><path d="M0 0-0.000941331-0.00753065-3.25324-5.45501C-3.9037-5.62445-4.56169-5.61786-5.19144-5.46631L-0.804838 1.89113C-0.554444 1.5419-0.34641 1.13713-0.192973 0.695644-0.109194 0.465017-0.0508319 0.232509 0 0" fill="#403634" transform="matrix(1 0 0 -1.00021 315.511 722.322)"/><path d="M0 0 1.10889 0.539383C2.08317-1.46848 3.24571-2.77975 4.35648-3.89805 5.51902-5.06718 5.79107-6.77758 5.05118-8.25453 4.43273-9.4905 3.26548-10.2605 1.94667-10.3565 1.67275-10.3763 1.39317-10.3659 1.11171-10.3264L1.28303-9.10644Z" fill="#CE8E68" transform="matrix(1 0 0 -1.00021 304.126 720.861)"/><path d="M0 0C-0.273927-0.0197679-0.552561-0.00941331-0.834961 0.0301226L-0.663638 1.25009C0.688113 1.06559 1.59932 1.8516 2.00127 2.65267 2.39945 3.44621 2.48511 4.63417 1.53531 5.58868 0.349234 6.78417-0.894264 8.1877-1.94667 10.3565L-0.837785 10.8959C0.136493 8.88805 1.29904 7.57677 2.41075 6.45847 3.57235 5.28934 3.8444 3.57894 3.10451 2.10199 2.48606 0.866024 1.3188 0.0960158 0 0" fill="#AA6747" transform="matrix(1 0 0 -1.00021 306.073 731.219)"/><path d="M0 0-1.73393-7.86388-3.15911-14.2725-4.86856-21.5894 34.7991-21.5894 34.64-17.7441C34.5741-16.4902 34.3125-15.323 33.8729-14.2725 32.9343-12.0255 31.1731-10.2972 28.7812-9.37566L27.7137-8.97183C26.7677-8.59812 25.8932-8.12274 25.1222-7.53253 25.0488-7.48829 24.9745-7.44593 24.9039-7.38851 24.179-6.84159 23.5512-6.20714 23.0005-5.50114 21.8153-3.97524 21.0416-2.11705 20.7865 2.50821e-15Z" fill="#CE8E68" transform="matrix(1 0 0 -1.00021 256.624 959.181)"/><path d="M0 0-1.42612-6.40952-3.13557-13.7255 37.6532-13.7255 37.4951-9.88021C37.4292-8.62636 37.1666-7.46005 36.7279-6.40952 35.7885-4.16257 32.907-2.43428 30.5151-1.51178L29.4477-1.10889C28.5016-0.734238 27.6271-0.258866 26.8562 0.331349L20.8458-10.0967 7.16353-10.0967C6.23538-2.27614 3.10451-0.432071 0 0" fill="#602D13" transform="matrix(1 0 0 -1.00021 254.89 967.046)"/><path d="M0 0 22.4027-8.05215 22.4234-24.3334C22.4234-24.3334-2.23566-25.3011-13.4733-21.4181Z" fill="#854830" transform="matrix(1 0 0 -1.00021 417.868 746.585)"/><path d="M0 0-17.0955-0.77095-25.3162 22.5929-8.22064 23.3638-7.53347 21.4115-2.33827 6.6458Z" fill="#854830" transform="matrix(1 0 0 -1.00021 383.002 738.366)"/><path d="M0 0-4.19834-0.192973C-9.57051-0.435836-15.1262 2.76563-16.5919 6.94702L-19.1316 14.1463-5.19615 14.7667Z" fill="#643D22" transform="matrix(1 0 0 -1.00021 380.665 731.719)"/><path d="M0 0C0 0 0.598686 5.16979-0.63634 7.3132-1.58803 8.96524-6.73805 12.82-6.73805 12.82-14.4146 10.4874-26.0767 4.48544-26.9512 3.40479-27.8267 2.32415-30.4794-5.9238-31.8104-9.14315-33.7081-13.7293-33.4172-15.5131-25.7219-21.8568-26.5333-25.3557-24.2976-28.3792-20.8627-29.1116L-24.549-11.5727Z" fill="#303030" transform="matrix(1 0 0 -1.00021 382.236 697.131)"/><path d="M0 0-17.5106-3.57706-21.2251 14.5991C-21.3626 15.3023-21.4548 15.9979-21.4849 16.6851-21.5772 18.0999-21.4548 19.4827-21.1564 20.8204-20.6443 23.0523-19.6437 25.1392-18.2213 26.9042-16.3641 29.2208-13.7011 30.6488-10.7773 31.7887-8.13122 32.8195 4.56922 32.9108 7.19177 22.5402 7.36027 21.8746 7.62007 21.2176 7.76504 20.5144L9.13373 13.8197C10.4252 7.48264 6.3361 1.29245 0 0" fill="#854830" transform="matrix(1 0 0 -1.00021 380.264 725.15)"/><path d="M0 0C0.230626-1.091-0.167557-2.09823-0.888616-2.25072-1.60873-2.40228-2.37968-1.64168-2.60937-0.549737-2.84 0.541265-2.44181 1.54849-1.72169 1.70099-1.00063 1.85254-0.229685 1.091 0 0" fill="#303030" transform="matrix(1 0 0 -1.00021 385.202 707.435)"/><path d="M0 0C6.72675 2.82964-2.68938 16.4912-2.68938 16.4912-2.68938 16.4912-10.6879 17.1868-5.18109-0.3257Z" fill="#303030" transform="matrix(1 0 0 -1.00021 361.495 715.796)"/><path d="M0 0C-4.85915 5.87108-8.11898 5.66964-10.3979 3.8058-13.2323 1.4873-12.1356-4.59934-7.97684-6.65709-4.34048-8.45692-0.0903678-5.54915-0.0244746-1.49295Z" fill="#854830" transform="matrix(1 0 0 -1.00021 364.22 715.834)"/><path d="M0 0C-0.263573-0.0536559-0.5375-0.0790718-0.817075-0.0762478L-0.803897 1.13336C0.536559 1.12395 1.32445 2.00504 1.61532 2.83717 1.90243 3.65895 1.8356 4.82715 0.790718 5.63763-0.515849 6.65144-1.90431 7.862-3.20335 9.84256L-2.19142 10.5071C-0.988397 8.67437 0.308757 7.54383 1.53249 6.59496 2.81176 5.6028 3.29372 3.97148 2.75904 2.43899 2.31285 1.1569 1.27268 0.259807 0 0" fill="#643D22" transform="matrix(1 0 0 -1.00021 381.714 715.34)"/><path d="M0 0-3.29748 2.1387-2.63855 3.15534 0.658932 1.0157Z" fill="#643D22" transform="matrix(1 0 0 -1.00021 360.131 719.417)"/><path d="M0 0C-3.42268-0.272986-3.74461 1.54378-1.1569 2.14718 1.62662 2.79575 4.25764 0.338879 0 0" fill="#303030" transform="matrix(1 0 0 -1.00021 383.477 701.118)"/><path d="M0 0C-3.01791-1.63792-4.04961-0.109194-1.92879 1.49295 0.352058 3.21559 3.75403 2.03704 0 0" fill="#303030" transform="matrix(1 0 0 -1.00021 371.031 703.513)"/><path d="M0 0C2.9426 0.358647 4.88551 3.1111 4.88551 3.1111L3.07627 11.2207-3.44056 8.05779Z" fill="#303030" transform="matrix(1 0 0 -1.00021 360.617 708.314)"/><path d="M0 0C0.230626-1.091-0.167557-2.09917-0.888616-2.25072-1.60873-2.40322-2.37968-1.64168-2.61031-0.550679-2.84 0.540324-2.44181 1.54849-1.72169 1.70004-1.00063 1.85254-0.229685 1.091 0 0" fill="#303030" transform="matrix(1 0 0 -1.00021 375.051 710.246)"/><path d="M0 0C0.974277 0.298402 2.58395 0.62975 4.8102 0.560092 5.42583 0.541265 5.8306-0.128962 5.53597-0.670228 3.37279-4.653 0.848139-2.72892-0.372767-1.37434-0.790718-0.91215-0.595863-0.182618 0 0" fill="#FDFAF7" transform="matrix(1 0 0 -1.00021 376.601 716.599)"/><path d="M0 0 2.70915-12.4058-0.455604-13.542-4.66429-4.18892Z" fill="#303030" transform="matrix(1 0 0 -1.00021 362.351 702.515)"/><path d="M0 0 13.5796 6.28338C5.88144 10.2699-0.789777 4.17857 0 0" fill="#303030" transform="matrix(1 0 0 -1.00021 359.624 700.181)"/><path d="M0 0C8.02108-5.31381 13.0468 1.71605 13.0468 1.71605 7.93919 6.88301 0 0 0 0" fill="#303030" transform="matrix(1 0 0 -1.00021 367.983 693.983)"/><path d="M0 0C-22.8602 5.67905-36.2309 19.0921-36.2309 19.0921L-32.4298 32.5456C-30.7589 38.4609-24.2402 41.5306-18.6158 39.0492L7.35274 27.8916Z" fill="#FFDECF" transform="matrix(1 0 0 -1.00021 411.97 773.689)"/><path d="M0 0-54.2113 0-60.6556 62.9684C-61.4021 70.3259-56.2229 76.9632-48.9069 78.0279L-25.4423 81.4383C-18.7711 82.4107-12.5451 78.4552-10.4252 72.3215-10.1315 71.4913-9.9141 70.6111-9.78796 69.7065L-8.53128 60.7817-5.45501 38.8676Z" fill="#FFDECF" transform="matrix(1 0 0 -1.00021 411.042 815.381)"/><path d="M0 0-10.0647 0-16.5091 62.9684C-16.5175 63.0353-16.526 63.1031-16.526 63.1699L-12.5197 63.1699Z" fill="#F1CCB4" transform="matrix(1 0 0 -1.00021 366.896 815.381)"/><path d="M0 0-0.856611 1.93632 25.897 13.766 26.7526 11.8297Z" fill="#F1CCB4" transform="matrix(1 0 0 -1.00021 371.824 786.796)"/><path d="M0 0C-10.4403-1.76029-14.7008 4.79326-14.7008 4.79326L-14.6848 4.79326-2.7581 7.32544 7.77445 8.06156C7.33485 5.78919 5.89461 0.994045 0 0" fill="#854830" transform="matrix(1 0 0 -1.00021 377.803 741.975)"/><path d="M0 0-24.5791 0-24.8464 4.57769-26.1577 27.2948-27.8361 56.4206-3.26548 56.4206-1.64733 28.4931-0.152496 2.64796Z" fill="#854830" transform="matrix(1 0 0 -1.00021 386.074 888.212)"/><path d="M0 0-24.5791 0-28.3397 11.5351-34.0837 29.1634-42.9708 56.4206-18.3927 56.4206-9.89433 30.3457-3.76156 11.5351Z" fill="#854830" transform="matrix(1 0 0 -1.00021 432.081 888.212)"/><path d="M0 0-4.66053 72.8157 21.5075 76.0558 24.5791 0Z" fill="#A36955" transform="matrix(1 0 0 -1.00021 361.494 888.212)"/><path d="M0 0-21.9245 63.6679 2.61313 79.4116 24.5791 0Z" fill="#A36955" transform="matrix(1 0 0 -1.00021 407.502 888.212)"/><path d="M0 0-24.5763 0-13.847-53.2539 10.7293-53.2539Z" fill="#854830" transform="matrix(1 0 0 -1.00021 432.079 888.209)"/><path d="M0 0-24.5753 0-32.2782-62.9572-10.1419-63.2047Z" fill="#854830" transform="matrix(1 0 0 -1.00021 386.074 888.209)"/><path d="M0 0-56.8912 0-60.2188 24.8935-6.93761 31.4894Z" fill="#A36955" transform="matrix(1 0 0 -1.00021 417.053 840.279)"/><path d="M0 0-0.128962 1.05053 53.6323 7.68032 53.7613 6.62979Z" fill="#824D35" transform="matrix(1 0 0 -1.00021 356.899 819.358)"/><path d="M0 0-3.53187 69.9785-2.47382 70.0322 1.05806 0.0545972Z" fill="#824D35" transform="matrix(1 0 0 -1.00021 364.095 888.239)"/><path d="M0 0-0.244746 1.02982C9.11585 3.25136 10.5777 13.5354 10.5919 13.6389L11.6405 13.5025C11.6264 13.3914 10.0798 2.39192 0 0" fill="#824D35" transform="matrix(1 0 0 -1.00021 361.804 830.422)"/><path d="M0 0C-2.37686 0-7.36403 1.16349-10.798 10.0525L-9.81055 10.4337C-5.61598-0.420775 0.804838 1.09759 1.07782 1.16725L1.34799 0.144024C1.27268 0.124256 0.774715 0 0 0" fill="#824D35" transform="matrix(1 0 0 -1.00021 412.167 823.524)"/><path d="M0 0 19.9892 2.50394C23.8929 11.4485 33.7062 32.0213 33.7062 32.0213L35.1973 55.7786C24.0228 54.6226 18.4011 52.8444 13.9439 41.3753 8.95206 28.5299 3.29466 10.4968 0 0" fill="#854830" transform="matrix(1 0 0 -1.00021 323.98 793.925)"/><path d="M0 0 2.21683 4.77914-14.9446 4.27364Z" fill="#643D22" transform="matrix(1 0 0 -1.00021 347.773 783.005)"/><path d="M0 0C21.0981-5.56703 41.0957-12.8407 41.0957-12.8407L49.8039-23.6359 35.4458-20.6556C-8.53222-29.4514-15.6242-12.7259-15.6242-12.7259Z" fill="#854830" transform="matrix(1 0 0 -1.00021 339.608 781.213)"/><path d="M0 0 1.84972-8.80427C1.99374-9.48673 1.60309-10.1692 0.941331-10.3904 0.232509-10.6276-0.535617-10.2558-0.788835-9.55263L-3.75968-1.31504Z" fill="#854830" transform="matrix(1 0 0 -1.00021 394.752 805.454)"/><path d="M0 0 6.0424-4.47979 6.55731-15.146C6.59214-15.8765 6.02075-16.4931 5.28934-16.5109 4.74996-16.5251 4.25764-16.2041 4.05243-15.7061L1.4826-9.47544-9.0782-4.32071Z" fill="#854830" transform="matrix(1 0 0 -1.00021 388.709 800.973)"/><path d="M0 0 9.37095-0.40289 11.8118-5.16791C11.9907-5.51526 12.3851-5.69317 12.7644-5.59715 13.2116-5.48419 13.4827-5.03141 13.3716-4.58334L11.6894 2.19613 6.03111 5.35806Z" fill="#854830" transform="matrix(1 0 0 -1.00021 386.767 802.931)"/><path d="M0 0-12.0377-13.3801C-12.0377-13.3801-12.274-13.2577-12.6863-13.0214-14.3948-12.0302-19.1476-8.97841-22.6795-3.79921-23.5032-2.6009-24.259-1.28962-24.8991 0.129904L-23.2368 6.89619-18.6214 5.53032-17.9804 5.33264Z" fill="#854830" transform="matrix(1 0 0 -1.00021 392.802 797.575)"/><path d="M0 0 5.39759-7.07693 5.69411-12.0406C5.72706-12.5922 5.22627-13.0243 4.68595-12.9113L4.63229-12.9C4.34424-12.8398 4.10891-12.6327 4.01195-12.355L2.60466-8.31572-1.69628-5.66775Z" fill="#854830" transform="matrix(1 0 0 -1.00021 382.464 805.287)"/><path d="M0 0 26.0457 0 20.6622 33.8954-4.43273 30.8484Z" fill="#F0E9EA" transform="matrix(1 0 0 -1.00021 420.087 959.526)"/><path d="M0 0 59.0911 0 57.5464 5.27522C57.0371 6.99597 56.2784 8.59341 55.3098 10.0374 53.2549 13.1099 50.2464 15.4755 46.6702 16.735L45.07 17.2988C43.4998 17.8523 42.0276 18.579 40.6617 19.4601 39.4879 20.2188 38.3988 21.0783 37.4151 22.0516 35.2679 24.1414 33.5763 26.7009 32.49 29.5898L-0.712588 29.5898-0.160968 10.0374Z" transform="matrix(1 0 0 -1.00021 418.053 980.775)"/><path d="M284.749 100.596 296.423 100.596 296.423 102.099 284.749 102.099Z" fill="#FDFAF7" transform="matrix(1 0 0 -1.00021 156 1055.88)"/><path d="M287.76 96.5316 299.433 96.5316 299.433 98.034 287.76 98.034Z" fill="#FDFAF7" transform="matrix(1 0 0 -1.00021 156 1055.88)"/><path d="M0 0 0 0C-0.00564799-0.179794 0.0574212-0.347351 0.178853-0.472548 0.563857-0.86979 1.36305-0.524321 1.37905 0.0470666 1.3847 0.226861 1.32163 0.394418 1.2002 0.519615 1.07971 0.644812 0.914032 0.713529 0.735179 0.713529 0.341703 0.713529 0.0122373 0.393476 0 0M-0.900854-1.51837C-1.30657-1.09853-1.51931-0.542207-1.50236 0.0470666-1.46377 1.24256-0.460311 2.21589 0.735179 2.21589 1.32445 2.21589 1.87325 1.98433 2.2799 1.56543 2.68656 1.1456 2.8993 0.590214 2.88141 0 2.84282-1.19549 1.83936-2.16789 0.64387-2.16789 0.0545972-2.16789-0.494199-1.9382-0.900854-1.51837" fill="#FDFAF7" transform="matrix(1 0 0 -1.00021 429.895 966.579)"/><path d="M0 0 0 0C-0.00564799-0.179794 0.0574212-0.347351 0.177912-0.472548 0.563857-0.868848 1.36116-0.528087 1.37905 0.0470666 1.3847 0.226861 1.32163 0.394418 1.2002 0.519615 1.07971 0.644812 0.914032 0.713529 0.735179 0.713529 0.349234 0.713529 0.0122373 0.385946 0 0M-0.900854-1.51837C-1.30657-1.09853-1.51931-0.542207-1.50236 0.0470666-1.46377 1.24256-0.460311 2.21589 0.735179 2.21589 1.32539 2.21589 1.87325 1.98433 2.2799 1.56543 2.68656 1.1456 2.8993 0.590214 2.88141 0 2.84376-1.19549 1.84124-2.16789 0.645753-2.16789 0.0545972-2.16789-0.494199-1.9382-0.900854-1.51837" fill="#FDFAF7" transform="matrix(1 0 0 -1.00021 436.943 966.579)"/><path d="M0 0 59.0911 0 57.5464 5.27522C57.0371 6.99597 56.2784 8.59341 55.3098 10.0374L-0.160968 10.0374Z" fill="#F0E9EA" transform="matrix(1 0 0 -1.00021 418.053 980.775)"/><path d="M261.734 79.3589 298.894 79.3589 298.894 80.8613 261.734 80.8613Z" fill="#F1CCB4" transform="matrix(1 0 0 -1.00021 156 1055.88)"/><path d="M0 0 33.1631 0 31.6184 5.27522C31.1091 6.99597 30.3504 8.59341 29.3818 10.0374 27.3278 13.1099 24.3183 15.4755 20.7432 16.735L19.1429 17.2988C17.5728 17.8523 16.1005 18.579 14.7347 19.4601 7.04398 15.9057 1.31598 8.64518 0 0" fill="#F0E9EA" transform="matrix(1 0 0 -1.00021 443.98 980.775)"/><path d="M0 0 0.757771 2.93978C1.29151 5.00976-0.220271 6.97997-2.34297 6.97997L-5.30252 6.97997C-7.63984 6.97997-9.85479 5.79201-11.1811 3.82651L-13.767 0Z" transform="matrix(1 0 0 -1.00021 450.543 951.179)"/><path d="M0 0 26.0193-1.17007 30.1377 31.2569 4.53722 32.6416Z" fill="#FDFAF7" transform="matrix(1 0 0 -1.00021 351.265 959.526)"/><path d="M0 0 59.0911 0 58.5724 5.27522C58.3973 6.99597 57.9493 8.59341 57.2612 10.0374 55.8049 13.1099 53.2558 15.4755 49.9254 16.735L48.4343 17.2988C46.9715 17.8523 45.6404 18.579 44.4468 19.4601 43.4198 20.2188 42.4973 21.0783 41.7038 22.0516 39.9633 24.1414 38.7697 26.7009 38.2444 29.5898L5.04177 29.5898 1.79041 10.0374Z" transform="matrix(1 0 0 -1.00021 346.194 980.775)"/><path d="M217.996 100.596 229.67 100.596 229.67 102.099 217.996 102.099Z" fill="#FDFAF7" transform="matrix(1 0 0 -1.00021 156 1055.88)"/><path d="M220.217 96.5316 231.89 96.5316 231.89 98.034 220.217 98.034Z" fill="#FDFAF7" transform="matrix(1 0 0 -1.00021 156 1055.88)"/><path d="M0 0 0 0C-0.0367119-0.164733-0.0160026-0.304991 0.0574212-0.3963 0.1412-0.501729 0.281458-0.52338 0.385004-0.52338 0.832137-0.52338 1.3141-0.124256 1.41859 0.330407 1.4553 0.496081 1.43459 0.637281 1.36116 0.727649 1.27739 0.834019 1.13713 0.85567 1.03452 0.85567 0.587391 0.85567 0.104488 0.454663 0 0M-1.11642-1.33481C-1.47412-0.886734-1.60215-0.280517-1.46565 0.330407L-1.46377 0.33229C-1.20679 1.46942-0.108253 2.35803 1.03452 2.35803 1.63603 2.35803 2.18295 2.10482 2.535 1.6671 2.89271 1.21808 3.02073 0.609982 2.8833 0 2.62631-1.13525 1.52872-2.0248 0.385004-2.0248-0.218389-2.0248-0.764361-1.77347-1.11642-1.33481" fill="#FDFAF7" transform="matrix(1 0 0 -1.00021 360.78 966.722)"/><path d="M0 0 0 0C-0.0367119-0.164733-0.0160026-0.304991 0.0574212-0.397242 0.140258-0.501729 0.280517-0.52338 0.383122-0.52338 0.831195-0.52338 1.3141-0.124256 1.4167 0.33229 1.45342 0.496081 1.43459 0.637281 1.36116 0.727649 1.27644 0.834019 1.13713 0.85567 1.03452 0.85567 0.587391 0.85567 0.104488 0.454663 0 0M-1.11642-1.33481C-1.47412-0.886734-1.60215-0.280517-1.46565 0.330407L-1.46377 0.33229C-1.20773 1.46942-0.108253 2.35803 1.03452 2.35803 1.63697 2.35803 2.18295 2.10482 2.535 1.66521 2.89271 1.2162 3.01979 0.6081 2.88236 0.00188266 2.62631-1.13525 1.52872-2.0248 0.383122-2.0248-0.218389-2.0248-0.764361-1.77535-1.11642-1.33481" fill="#FDFAF7" transform="matrix(1 0 0 -1.00021 367.831 966.722)"/><path d="M0 0 59.0911 0 58.5724 5.27522C58.3973 6.99597 57.9493 8.59341 57.2612 10.0374L1.79041 10.0374Z" fill="#FDFAF7" transform="matrix(1 0 0 -1.00021 346.194 980.775)"/><path d="M191.284 79.3589 228.443 79.3589 228.443 80.8613 191.284 80.8613Z" fill="#F1CCB4" transform="matrix(1 0 0 -1.00021 156 1055.88)"/><path d="M0 0 33.1631 0 32.6444 5.27522C32.4703 6.99597 32.0222 8.59341 31.3341 10.0374 29.8769 13.1099 27.3287 15.4755 23.9983 16.735L22.5072 17.2988C21.0444 17.8523 19.7134 18.579 18.5188 19.4601 10.1381 15.9057 2.9972 8.64518 0 0" fill="#FDFAF7" transform="matrix(1 0 0 -1.00021 372.121 980.775)"/><path d="M0 0 1.3301 2.93978C2.26578 5.00976 1.13713 6.97997-0.984632 6.97997L-3.94512 6.97997C-6.28244 6.97997-8.72708 5.79201-10.4365 3.82651L-13.767 0Z" transform="matrix(1 0 0 -1.00021 384.438 951.179)"/><path d="M0 0C-12.9169-0.258866-20.1803-0.627868-25.351-13.5552-30.5217-26.4825-33.7232-35.9617-33.7232-35.9617L-14.2405-43.4255-3.96959-25.0046Z" fill="#FFDECF" transform="matrix(1 0 0 -1.00021 363.118 737.18)"/><path d="M0 0-7.64549-41.5165-11.4447-41.5165-12.6901-50.9439 22.4639-50.9439 24.5791 0Z" fill="#A36955" transform="matrix(1 0 0 -1.00021 361.494 888.212)"/><path d="M0 0 5.16414-41.5165 1.36493-41.5165 3.09321-50.9439 37.721-50.9439 24.5791 0Z" fill="#A36955" transform="matrix(1 0 0 -1.00021 407.502 888.212)"/><path d="M0 0-1.04582 0.159085 5.34111 42.1264 6.38693 41.9674Z" fill="#824D35" transform="matrix(1 0 0 -1.00021 358.761 930.267)"/><path d="M0 0-6.85007 43.3746-22.4809 89.4443-26.377 89.4443-26.377 90.5033-21.7222 90.5033-5.8259 43.6269 1.04488 0.165674Z" fill="#824D35" transform="matrix(1 0 0 -1.00021 417.369 930.271)"/><path d="M286.808 125.59 256.666 125.59 256.666 126.649 286.808 126.649Z" fill="#824D35" transform="matrix(1 0 0 -1.00021 156 1055.88)"/><path d="M228.35 125.59 197.849 125.59 197.849 126.649 228.35 126.649Z" fill="#824D35" transform="matrix(1 0 0 -1.00021 156 1055.88)"/><path d="M0 0-0.890499 0.414186C-1.06276 0.494199-5.11707 2.42958-6.52813 7.27837L-5.51149 7.57489C-4.62947 4.54663-2.55854 2.74869-1.35363 1.92126L-3.71261 17.8853-2.66585 18.0406Z" fill="#824D35" transform="matrix(1 0 0 -1.00021 393.47 832.674)"/><path d="M0 0-8.89181-2.3458C-9.58181-2.52747-10.0261-3.19676-9.92445-3.90276-9.81714-4.65959-9.12526-5.1905-8.36655-5.10013L0.522439-4.03831Z" fill="#CE8E68" transform="matrix(1 0 0 -1.00021 343.603 766.816)"/><path d="M0 0-6.86324 3.46786-16.8451-0.951686C-17.5285-1.25385-17.8288-2.05963-17.5106-2.73551-17.2762-3.23441-16.7576-3.53752-16.2078-3.4961L-9.33706-2.98873 0.213682-10.2756Z" fill="#CE8E68" transform="matrix(1 0 0 -1.00021 350.466 770.284)"/><path d="M0 0-4.66335 8.37784-10.1363 8.42491C-10.5354 8.42868-10.8799 8.70731-10.9656 9.09702-11.0672 9.55733-10.7773 10.0139-10.317 10.1174L-3.35208 11.6885 2.13117 7.96742Z" fill="#CE8E68" transform="matrix(1 0 0 -1.00021 348.154 775.978)"/><path d="M0 0C-7.42993-0.0291813-7.81869 4.03643-7.81869 4.03643L-3.61095 17.2452C-0.62975 14.8034 0.907443 11.0145 0.471607 7.18518Z" fill="#CE8E68" transform="matrix(1 0 0 -1.00021 353.896 785.257)"/><path d="M0 0-8.93982 1.68781-13.6116-0.316287C-14.1313-0.539383-14.2969-1.19455-13.9449-1.63697L-13.91-1.68122C-13.7237-1.91655-13.4271-2.03704-13.1287-1.9975L-8.79203-1.43271-2.7421-4.86668Z" fill="#CE8E68" transform="matrix(1 0 0 -1.00021 348.82 776.353)"/><path d="M0 0C0 0-13.8074-1.27174-26.8872 0.508319L-21.5527 22.4206-3.89617 16.9054Z" fill="#3E4147" transform="matrix(1 0 0 -1.00021 444.754 770.928)"/><path d="M0 0C0-0.286165-0.0922504-0.562916-0.265455-0.807662L-2.26955-3.56764-6.09229-2.90306-2.37121 0.950744C-1.88078 1.45153-1.09383 1.51272-0.542207 1.09383-0.18356 0.818017 0 0.408538 0 0" fill="#3E4147" transform="matrix(1 0 0 -1.00021 453.677 684.511)"/><path d="M0 0 1.62568-11.3044-7.05245-6.22502-6.74558 1.2981-6.07158 1.80924Z" fill="#3E4147" transform="matrix(1 0 0 -1.00021 451.807 691.33)"/><path d="M0 0C0-0.255101-0.0715412-0.500788-0.214623-0.715412L-2.13682-3.57706C-2.13682-3.55729-4.30282-2.57548-5.93886-1.8403L-2.08505 1.04205C-1.50236 1.48166-0.674934 1.35928-0.245687 0.766243-0.0818958 0.542207 0 0.265455 0 0" fill="#3E4147" transform="matrix(1 0 0 -1.00021 455.691 684.665)"/><path d="M0 0-3.01979 1.0477-0.380298 4.01572C-0.18356 4.23787 0.0875438 4.34895 0.371826 4.34895 0.617513 4.34895 0.851905 4.26235 1.04958 4.09008 1.39411 3.78227 1.49295 3.26359 1.25856 2.85694Z" fill="#3E4147" transform="matrix(1 0 0 -1.00021 443.368 688.495)"/><path d="M0 0-7.81869 1.97303-8.2583 7.07316-4.53816 7.33862Z" fill="#3E4147" transform="matrix(1 0 0 -1.00021 447.462 698.057)"/><path d="M0 0 17.8316-2.44464C18.082-8.09733 21.5245-15.2336 15.6167-23.1445L7.34615-23.0984 5.88332-18.5132 5.68752-17.8712Z" fill="#3E4147" transform="matrix(1 0 0 -1.00021 439.643 696.076)"/><path d="M0 0 0.163792-3.58741-5.47855-5.36559-3.3116 1.12489Z" fill="#3E4147" transform="matrix(1 0 0 -1.00021 457.306 694.929)"/><path d="M0 0-1.72734-2.32038-4.26235-1.1343-1.20584 1.2162C-0.766243 1.5532-0.132728 1.37999 0.0818958 0.868848L0.102605 0.818017C0.214623 0.55162 0.174146 0.235333 0 0" fill="#3E4147" transform="matrix(1 0 0 -1.00021 459.799 690.042)"/><path d="M0 0C-0.603393-0.654225-1.50236-1.68687-2.14623-2.41263L-3.55729 0.879203C-3.84345 1.54378-3.42456 2.28932-2.70821 2.39192L-2.63667 2.40228C-2.25919 2.45311-1.88078 2.31003-1.63509 2.01351Z" fill="#3E4147" transform="matrix(1 0 0 -1.00021 438.182 698.947)"/><path d="M0 0-9.64864 14.9126-6.94043 17.9069-0.500788 16.558Z" fill="#3E4147" transform="matrix(1 0 0 -1.00021 446.993 719.178)"/><path d="M0 0C7.49958 18.0227 11.1802 55.8143 11.1802 55.8143L6.55543 55.1215-7.4111 14.5323Z" fill="#3E4147" transform="matrix(1 0 0 -1.00021 444.754 770.928)"/><path d="M0 0-1.38564 2.24696-2.53783 4.88174-1.56732 5.30346-0.450898 2.73551 0.900854 0.556327Z" fill="#3E4147" transform="matrix(1 0 0 -1.00021 438.28 705.064)"/><path d="M0 0-2.91154 3.94041-2.05963 4.56922 0.851905 0.62975Z" fill="#3E4147" transform="matrix(1 0 0 -1.00021 439.456 703.202)"/><path d="M0 0-1.05806 0.0423599-0.938507 3.00096 1.17384 5.92944 2.03233 5.31099 0.10637 2.64043Z" fill="#3E4147" transform="matrix(1 0 0 -1.00021 440.565 691.941)"/><path d="M0 0-0.463135 2.99061 0.719177 5.3044 1.66239 4.82338 0.63634 2.81364 1.04582 0.160968Z" fill="#3E4147" transform="matrix(1 0 0 -1.00021 441.895 692.263)"/><path d="M0 0-0.765302 0.730473 2.75151 4.42049 3.51775 3.69002Z" fill="#3E4147" transform="matrix(1 0 0 -1.00021 446.37 690.809)"/><path d="M0 0-1.05147 0.122373C-0.703174 3.1431-0.641046 3.21182-0.506436 3.36055-0.386887 3.49704 1.27927 5.56044 1.27927 5.56138L2.10293 4.89586C1.64921 4.33483 0.666462 3.11863 0.364295 2.75151 0.294637 2.40039 0.130845 1.13148 0 0" fill="#3E4147" transform="matrix(1 0 0 -1.00021 449.619 692.244)"/><path d="M0 0-1.05429 0.0960158-0.764361 3.27866 1.47789 5.73176 2.25919 5.01824 0.256983 2.82776Z" fill="#3E4147" transform="matrix(1 0 0 -1.00021 451.564 692.575)"/><path d="M0 0-1.01193 0.311581-0.211799 2.91342 1.61532 4.46097 2.29967 3.65331 0.709764 2.30626Z" fill="#3E4147" transform="matrix(1 0 0 -1.00021 454.911 695.136)"/><path d="M0 0-1.04958 0.1412-0.725766 2.53406 0.695644 4.56357 1.56261 3.95641 0.288047 2.13776Z" fill="#3E4147" transform="matrix(1 0 0 -1.00021 456.778 695.609)"/><path d="M0 0C-3.09698-9.92634-17.7864-38.7179-17.7864-38.7179L-13.4535-40.9554 2.10011-1.48919Z" fill="#3E4147" transform="matrix(1 0 0 -1.00021 448.455 712.764)"/><path d="M0 0C0 0-2.04928-27.838-4.34424-29.6736-6.64015-31.5101-23.5427-42.2018-23.3337-67.0096L22.2248-67.0096 22.2248-2.29591Z" transform="matrix(1 0 0 -1.00021 707.235 720.375)"/><path d="M0 0-3.71637 0C-3.38973 7.6822-4.46003 15.4237-6.88866 22.719-6.13842 16.8461-5.26392 8.16228-5.32605 0L-40.1835 0-40.1835 67.7702-26.9512 77.7521C-17.5737 65.431-19.7152 45.4183-17.8815 42.9802-16.0478 40.5318 1.06088 33.0972 0 0" transform="matrix(1 0 0 -1.00021 759.98 791.309)"/><path d="M450.536 207.77 354.293 207.77 354.293 157.752 450.536 157.752Z" fill="#DBA785" transform="matrix(1 0 0 -1.00021 156 1055.88)"/><path d="M0 0-84.2284 0C-89.6495 0-94.0625-4.41108-94.0625-9.83408L-94.0625-53.9128 0-53.9128ZM-96.2417-9.83408C-96.2417-3.20994-90.8526 2.17918-84.2284 2.17918L0 2.17918 0 38.7941C0 46.8124 6.52436 53.3358 14.5426 53.3358L28.7859 53.3358 28.7859 51.1566 14.5426 51.1566C7.7255 51.1566 2.17918 45.6112 2.17918 38.7941L2.17918 2.17918 2.40416 2.17918 2.40416 0 2.17918 0 2.17918-56.093-96.2417-56.093Z" fill="#DBA785" transform="matrix(1 0 0 -1.00021 605.446 843.083)"/><path d="M353.204 107.382 355.383 107.382 355.383 157.752 353.204 157.752Z" fill="#DBA785" transform="matrix(1 0 0 -1.00021 156 1055.88)"/><path d="M0 0C0 10.5721-8.68566 19.1438-19.3989 19.1438-30.1141 19.1438-38.7998 10.5721-38.7998 0-38.7998-10.5721-30.1141-19.1438-19.3989-19.1438-8.68566-19.1438 0-10.5721 0 0" fill="#DBA785" transform="matrix(1 0 0 -1.00021 529.894 961.936)"/><path d="M0 0C-7.03645 0-12.739-5.62822-12.739-12.5705-12.739-19.5128-7.03645-25.142 0-25.142 7.03551-25.142 12.739-19.5128 12.739-12.5705 12.739-5.62822 7.03551 0 0 0M0-1.85913C5.9991-1.85913 10.8799-6.66462 10.8799-12.5705 10.8799-18.4774 5.9991-23.2829 0-23.2829-6.00004-23.2829-10.8808-18.4774-10.8808-12.5705-10.8808-6.66462-6.00004-1.85913 0-1.85913" fill="#DBA785" transform="matrix(1 0 0 -1.00021 510.495 949.363)"/><path d="M0 0 32.6849 26.41 31.5148 27.8549-1.16913 1.44494Z" fill="#DBA785" transform="matrix(1 0 0 -1.00021 593.178 937.785)"/><path d="M436.593 117.867 477.744 117.867 477.744 119.726 436.593 119.726Z" fill="#DBA785" transform="matrix(1 0 0 -1.00021 156 1055.88)"/><path d="M0 0 1.16913 1.44494-31.5148 27.8549-32.6849 26.41Z" fill="#DBA785" transform="matrix(1 0 0 -1.00021 624.693 964.2)"/><path d="M435.664 81.4477 437.523 81.4477 437.523 118.796 435.664 118.796Z" fill="#DBA785" transform="matrix(1 0 0 -1.00021 156 1055.88)"/><path d="M0 0 32.684 26.41 31.5148 27.8549-1.16913 1.44494Z" fill="#DBA785" transform="matrix(1 0 0 -1.00021 560.495 964.2)"/><path d="M395.443 117.867 436.594 117.867 436.594 119.726 395.443 119.726Z" fill="#DBA785" transform="matrix(1 0 0 -1.00021 156 1055.88)"/><path d="M0 0 1.16913 1.44494-31.5148 27.8549-32.684 26.41Z" fill="#DBA785" transform="matrix(1 0 0 -1.00021 592.008 937.785)"/><path d="M437.523 156.144 435.664 156.144 435.664 118.796 437.523 118.796Z" fill="#DBA785" transform="matrix(1 0 0 -1.00021 156 1055.88)"/><path d="M0 0C0-5.33923-4.38472-9.66841-9.79267-9.66841-15.2016-9.66841-19.5863-5.33923-19.5863 0-19.5863 5.33923-15.2016 9.66747-9.79267 9.66747-4.38472 9.66747 0 5.33923 0 0" fill="#DBA785" transform="matrix(1 0 0 -1.00021 602.387 936.715)"/><path d="M0 0C-23.3685 0-42.3138-18.7014-42.3138-41.7716-42.3138-64.8417-23.3685-83.5431 0-83.5431 23.3695-83.5431 42.3147-64.8417 42.3147-41.7716 42.3147-18.7014 23.3695 0 0 0M0-5.72047C20.1699-5.72047 36.5773-21.8935 36.5773-41.7716 36.5773-61.6496 20.1699-77.8217 0-77.8217-20.169-77.8217-36.5773-61.6496-36.5773-41.7716-36.5773-21.8935-20.169-5.72047 0-5.72047" fill="#DBA785" transform="matrix(1 0 0 -1.00021 592.593 895.281)"/><path d="M0 0C-24.6233 0-44.5843-19.7049-44.5843-44.0129-44.5843-68.3199-24.6233-88.0257 0-88.0257 24.6233-88.0257 44.5852-68.3199 44.5852-44.0129 44.5852-19.7049 24.6233 0 0 0M0-3.11016C22.8593-3.11016 41.4572-21.4586 41.4572-44.0129 41.4572-66.5662 22.8593-84.9146 0-84.9146-22.8593-84.9146-41.4572-66.5662-41.4572-44.0129-41.4572-21.4586-22.8593-3.11016 0-3.11016" fill="#DBA785" transform="matrix(1 0 0 -1.00021 592.593 893.04)"/><path d="M0 0-1.62191-9.25893 2.76187-15.4576C3.1271-15.9763 3.78886-16.1928 4.39131-15.9932 5.14626-15.7428 5.55479-14.9276 5.3044-14.1727L3.69755-9.33141 8.85133-2.90495Z" fill="#E09A78" transform="matrix(1 0 0 -1.00021 630.992 781.446)"/><path d="M0 0-3.33796-7.67091 0.3257-14.3214C0.631633-14.8768 1.26421-15.1667 1.88454-15.0359 2.66303-14.8702 3.16005-14.1058 2.99626-13.3283L1.94008-8.33737 7.7801-2.52747Z" fill="#E09A78" transform="matrix(1 0 0 -1.00021 636.209 782.83)"/><path d="M0 0-0.176029 0.178853C-0.715412 0.724825-1.59367 0.731414-2.13965 0.192973L-4.27176-1.90996C-4.81773-2.4484-4.82432-3.32761-4.28588-3.87358L-4.10891-4.05243C-3.57047-4.5984-2.69127-4.60499-2.14529-4.06561L-0.01412-1.96362C0.531852-1.42518 0.538441-0.545972 0 0" fill="#E09A78" transform="matrix(1 0 0 -1.00021 644.754 790.439)"/><path d="M0 0-0.872614 4.85539-7.64078 0.157202C-8.34867-0.317229-8.53787-1.27644-8.0625-1.98433-7.58807-2.69221-6.62885-2.88141-5.92003-2.40698Z" fill="#E09A78" transform="matrix(1 0 0 -1.00021 632.245 785.628)"/><path d="M0 0 0.237215 0.0969571C0.961099 0.391594 1.31033 1.21714 1.01475 1.94197L-1.01287 6.92443C-1.30751 7.64831-2.134 7.99661-2.85788 7.70197L-3.0951 7.60501C-3.81992 7.31038-4.16821 6.48483-3.87264 5.76L-1.84501 0.777539C-1.55037 0.0536559-0.724825-0.294637 0 0" fill="#E09A78" transform="matrix(1 0 0 -1.00021 627.843 792.992)"/><path d="M0 0 0.227802 0.116725C0.924387 0.471607 1.20114 1.32445 0.845315 2.02104L-1.57579 6.76723C-1.93161 7.46381-2.78352 7.74056-3.4801 7.38474L-3.7079 7.26802C-4.40543 6.91313-4.68218 6.06029-4.32636 5.3637L-1.90431 0.617513C-1.54943-0.0781305-0.696585-0.354882 0 0" fill="#E09A78" transform="matrix(1 0 0 -1.00021 642.76 797.526)"/><path d="M0 0 0.0922504 1.63603C0.165674 2.94637 1.2868 3.94982 2.59807 3.8764L23.1389 2.72515C24.4501 2.65173 25.4526 1.52966 25.3792 0.21933L25.287-1.4167C25.2136-2.72704 24.0924-3.72955 22.7812-3.65707L2.24037-2.50582C0.929094-2.4324-0.0734238-1.31127 0 0" transform="matrix(1 0 0 -1.00021 624.79 791.76)"/><path d="M0 0-19.3971 4.63229-17.7479-6.93855-7.23413-7.55983C-3.00755-7.80928 0.435836-4.21151 0 0" fill="#E09A78" transform="matrix(1 0 0 -1.00021 650.77 785.405)"/><path d="M0 0 53.5269-9.84726C47.4403-28.2823 17.5031-28.6419-4.21057-5.19426Z" fill="#E09A78" transform="matrix(1 0 0 -1.00021 650.77 785.405)"/><path d="M0 0-4.24823 4.43367-8.68848-1.07877C-9.3766-1.93255-9.32294-3.16381-8.56611-3.95453-7.8074-4.74619-6.5799-4.85068-5.69788-4.20116Z" fill="#E09A78" transform="matrix(1 0 0 -1.00021 636.84 792.648)"/><path d="M0 0C1.32916 22.4536 12.05 71.6984 12.05 71.6984L40.1967 55.1601 24.3391 0Z" fill="#E09A78" transform="matrix(1 0 0 -1.00021 692.831 882.811)"/><path d="M0 0-21.8794-3.9583-23.3488 74.415 0.991221 74.415Z" fill="#E09A78" transform="matrix(1 0 0 -1.00021 716.179 957.241)"/><path d="M0 0-24.5104-4.10326-24.7843 28.6428-0.687172 29.7291Z" fill="#F0E9EA" transform="matrix(1 0 0 -1.00021 718.086 957.161)"/><path d="M0 0-56.3829 0-54.9097 5.0333C-54.423 6.67498-53.6992 8.19899-52.7748 9.5771-50.8149 12.5084-47.9448 14.7667-44.5325 15.9687L-43.0056 16.5053C-41.507 17.0343-40.1026 17.7271-38.7998 18.5678-37.6787 19.2907-36.6394 20.1115-35.7009 21.0406-33.6526 23.0344-32.0382 25.4771-31.0018 28.2324L0.679641 28.2324 0.153437 9.5771Z" transform="matrix(1 0 0 -1.00021 719.122 978.405)"/><path d="M541.467 101.796 530.328 101.796 530.328 103.228 541.467 103.228Z" fill="#FDFAF7" transform="matrix(1 0 0 -1.00021 156 1055.88)"/><path d="M538.593 97.9172 527.455 97.9172 527.455 99.35 538.593 99.35Z" fill="#FDFAF7" transform="matrix(1 0 0 -1.00021 156 1055.88)"/><path d="M0 0C-0.171322 0-0.329466-0.0658932-0.443367-0.184501-0.560092-0.303109-0.619396-0.463135-0.613748-0.635398-0.598686-1.18043 0.163792-1.50989 0.529969-1.13054 0.646694-1.01193 0.70694-0.851905 0.701292-0.680582 0.689996-0.304991 0.37465 0 0 0M0.0875438-2.74869C-1.05335-2.74869-2.01162-1.82148-2.04739-0.680582-2.06434-0.117666-1.86195 0.412303-1.47318 0.81331-1.08535 1.21338-0.562916 1.43271 0 1.43271 1.14089 1.43271 2.09823 0.505495 2.13494-0.635398 2.15188-1.19737 1.94855-1.72828 1.56073-2.12929 1.1729-2.52936 0.649518-2.74869 0.0875438-2.74869" fill="#FDFAF7" transform="matrix(1 0 0 -1.00021 707.121 964.18)"/><path d="M0 0C-0.171322 0-0.329466-0.0658932-0.444308-0.184501-0.560092-0.303109-0.620337-0.463135-0.613748-0.635398-0.597745-1.18419 0.163792-1.50895 0.531852-1.13054 0.646694-1.01193 0.70694-0.851905 0.701292-0.680582 0.689996-0.312522 0.36806 0 0 0M0.0856611-2.74869C-1.05523-2.74869-2.01162-1.82148-2.04834-0.680582-2.06434-0.117666-1.86195 0.412303-1.47318 0.81331-1.0863 1.21338-0.562916 1.43271 2.09018e-16 1.43271 1.14089 1.43271 2.09823 0.505495 2.13494-0.635398 2.15094-1.19737 1.94761-1.72828 1.56073-2.12929 1.1729-2.52936 0.649518-2.74869 0.0856611-2.74869" fill="#FDFAF7" transform="matrix(1 0 0 -1.00021 700.396 964.18)"/><path d="M0 0-56.3829 0-54.9097 5.0333C-54.423 6.67498-53.6992 8.19899-52.7748 9.5771L0.153437 9.5771Z" fill="#F0E9EA" transform="matrix(1 0 0 -1.00021 719.122 978.405)"/><path d="M563.427 81.5324 527.969 81.5324 527.969 82.9651 563.427 82.9651Z" fill="#94C19B" transform="matrix(1 0 0 -1.00021 156 1055.88)"/><path d="M0 0-31.6428 0-30.1697 5.0333C-29.683 6.67498-28.9591 8.19899-28.0347 9.5771-26.0749 12.5084-23.2038 14.7667-19.7915 15.9687L-18.2646 16.5053C-16.767 17.0343-15.3616 17.7271-14.0597 18.5678-6.7211 15.1761-1.25574 8.24794 0 0" fill="#F0E9EA" transform="matrix(1 0 0 -1.00021 694.382 978.405)"/><path d="M0 0-0.723884 2.80517C-1.23314 4.78102 0.210858 6.65992 2.23566 6.65992L5.05965 6.65992C7.28967 6.65992 9.40296 5.5275 10.669 3.65236L13.1363 0Z" transform="matrix(1 0 0 -1.00021 688.121 950.167)"/><path d="M0 0C-5.76848-16.6521-7.4271-37.8519-7.4271-37.8519L22.8235-41.0025 30.6366 0Z" fill="#824D35" transform="matrix(1 0 0 -1.00021 704.881 811.099)"/><path d="M0 0-27.4567 2.4917-27.3645 3.51399 0.0922504 1.02229Z" fill="#643D22" transform="matrix(1 0 0 -1.00021 725.317 847.466)"/><path d="M0 0C33.3165 7.65114 51.0183 31.4696 51.0183 31.4696L42.4794 41.2783C38.7245 45.5905 34.0376 45.8645 31.1496 44.3875L-10.0779 11.9474Z" fill="#5E6F64" transform="matrix(1 0 0 -1.00021 560.447 843.379)"/><path d="M0 0C-7.77728 1.45436-13.5599 7.74151-17.7479 15.9518-20.9625 22.2455-23.2255 29.6755-24.7297 36.935-25.191 39.1556-25.5816 41.3621-25.9073 43.5196L-15.0472 43.5196C-13.0807 30.5142 13.1495 21.4755 0 0" fill="#E6A978" transform="matrix(1 0 0 -1.00021 560.463 843.382)"/><path d="M0 0-6.05652 6.27962C-6.52625 6.76629-7.2859 6.82465-7.82434 6.41423-8.40044 5.97557-8.52093 5.15661-8.09451 4.57016L-3.10263-2.30061Z" fill="#E6A978" transform="matrix(1 0 0 -1.00021 547.104 777.445)"/><path d="M0 0-0.303109 7.28873-8.58117 13.5119C-9.14785 13.9373-9.95363 13.814-10.3669 13.2379-10.6719 12.8125-10.6832 12.243-10.3942 11.8062L-6.79547 6.35116-8.41267-4.93069Z" fill="#E6A978" transform="matrix(1 0 0 -1.00021 547.407 784.736)"/><path d="M0 0 4.78102 7.73868 2.28838 12.2928C2.10576 12.6251 2.1773 13.0393 2.46064 13.2907 2.79575 13.5881 3.30784 13.558 3.60624 13.2257L8.12933 8.18299 7.58524 1.92126Z" fill="#E6A978" transform="matrix(1 0 0 -1.00021 544.779 785.227)"/><path d="M0 0-17.2932-2.37027C-17.5361-7.85164-20.874-14.7732-15.1451-22.4451L-7.12399-22.3999-5.70635-17.9531-5.51526-17.3308Z" fill="#E6A978" transform="matrix(1 0 0 -1.00021 552.363 783.302)"/><path d="M0 0-2.73739 8.18487-6.55919 11.1275C-6.98373 11.4541-7.60219 11.2884-7.80646 10.7924L-7.82623 10.7434C-7.93542 10.4798-7.89777 10.1786-7.72739 9.94893L-5.25357 6.61944-5.47102 1.7264Z" fill="#E6A978" transform="matrix(1 0 0 -1.00021 540.545 787.398)"/><path d="M0 0 9.51591 14.6998 11.9926 20.473C12.2674 21.1141 11.8579 21.8417 11.167 21.9387L11.0983 21.9481C10.7302 21.9998 10.3622 21.8549 10.1287 21.5668L6.72675 17.3685 0.482903 16.06Z" fill="#E6A978" transform="matrix(1 0 0 -1.00021 545.239 805.706)"/><path d="M0 0C1.34893 5.94356 5.23757 7.92507 13.0101 6.8463L11.2856-1.52307Z" fill="#FFDECF" transform="matrix(1 0 0 -1.00021 600.086 796.181)"/><path d="M0 0 16.6173-1.40729 20.1144 24.3249 4.28494 22.6381 3.92723 20.746 1.21902 6.4387Z" fill="#E6A978" transform="matrix(1 0 0 -1.00021 604.701 799.776)"/><path d="M0 0 3.8877 0.411362C8.86169 0.94039 13.5222 4.66335 14.2847 8.7139L15.611 15.6901 2.70821 14.3063Z" fill="#D6895E" transform="matrix(1 0 0 -1.00021 605.919 793.335)"/><path d="M0 0 16.27-3.41421 19.816 13.4742C19.9468 14.1275 20.0353 14.7742 20.0673 15.4143 20.1595 16.7293 20.0532 18.0171 19.783 19.2625 19.3171 21.3409 18.3964 23.2866 17.0823 24.9359 15.3663 27.1 12.8962 28.4414 10.1814 29.5154 7.7255 30.4888-4.0882 30.6356-6.57896 21.002-6.73899 20.3845-6.98373 19.7745-7.12211 19.1203L-8.42774 12.9C-9.66088 7.01197-5.88803 1.23314 0 0" fill="#E6A978" transform="matrix(1 0 0 -1.00021 605.7 784.659)"/><path d="M0 0C-0.21933-1.01381 0.145906-1.95326 0.815193-2.09823 1.48542-2.24319 2.20648-1.53908 2.42487-0.525263 2.64514 0.489492 2.2799 1.428 1.60968 1.57296 0.94039 1.71793 0.21933 1.01381 0 0" fill="#303030" transform="matrix(1 0 0 -1.00021 601.501 767.731)"/><path d="M0 0C-6.24385 2.66491 2.58301 15.3268 2.58301 15.3268 2.58301 15.3268 10.0271 15.9339 4.81773-0.329466Z" fill="#643D22" transform="matrix(1 0 0 -1.00021 623.205 776.05)"/><path d="M0 0C4.54851 5.43713 7.58054 5.23474 9.691 3.48951 12.3164 1.31786 11.2658-4.33765 7.38757-6.23255 3.99595-7.88741 0.0574212-5.16226 0.0150613-1.38846Z" fill="#E6A978" transform="matrix(1 0 0 -1.00021 620.671 776.072)"/><path d="M0 0C0.244746-0.0517732 0.498905-0.0762478 0.759654-0.0753065L0.753065 1.05053C-0.493257 1.04864-1.22279 1.87137-1.48824 2.64702-1.75088 3.41327-1.68404 4.49956-0.707881 5.24792 0.513025 6.18454 1.81018 7.30473 3.02826 9.13938L2.0907 9.76348C0.96204 8.06438-0.250394 7.01951-1.39317 6.14313-2.58866 5.22533-3.04332 3.70979-2.55383 2.28273-2.14529 1.08818-1.18231 0.248511 0 0" fill="#D6895E" transform="matrix(1 0 0 -1.00021 604.399 775.526)"/><path d="M0 0 3.07815 1.97397 2.47005 2.92189-0.6081 0.94792Z" fill="#DB773F" transform="matrix(1 0 0 -1.00021 624.455 779.426)"/><path d="M0 0C3.18264-0.271103 3.4914 1.41764 1.0863 1.99186-1.49954 2.60843-3.9583 0.336055 0 0" fill="#8C290B" transform="matrix(1 0 0 -1.00021 602.829 762.288)"/><path d="M0 0C2.79858-1.53813 3.76532-0.121432 1.80077 1.37905-0.312522 2.99249-3.48198 1.91373 0 0" fill="#643D22" transform="matrix(1 0 0 -1.00021 614.396 764.578)"/><path d="M0 0C-0.218389-1.01381 0.145906-1.95326 0.815193-2.09823 1.48542-2.24319 2.20648-1.53813 2.42487-0.525263 2.64514 0.489492 2.2799 1.42894 1.60968 1.57296 0.94039 1.71793 0.21933 1.01381 0 0" fill="#303030" transform="matrix(1 0 0 -1.00021 610.929 770.396)"/><path d="M0 0C-0.90556 0.282399-2.40134 0.598686-4.47226 0.545031-5.04459 0.529969-5.42489-0.0913091-5.15473-0.595863-3.16005-4.31224-0.803897-2.535 0.338879-1.28115 0.729531-0.851905 0.552561-0.173205 0 0" fill="#FDFAF7" transform="matrix(1 0 0 -1.00021 609.15 776.723)"/><path d="M0 0C0.829313 3.19488 3.49987 5.67999 6.31633 6.60155 12.0509 8.47574 18.0679 7.68126 18.0679 7.68126L16.719-2.33168Z" fill="#FFFFFF" transform="matrix(1 0 0 -1.00021 607.347 797.159)"/><path d="M0 0C-0.943214-4.72642-5.54067-7.79422-10.2671-6.85101-14.9945-5.90779-18.0613-1.31127-17.119 3.41609-16.1758 8.14345-11.5784 11.2103-6.85101 10.2671-2.12458 9.32388 0.943214 4.72736 0 0" fill="#643D22" transform="matrix(1 0 0 -1.00021 637.401 763.876)"/><path d="M0 0C-0.943214-4.72642-5.54067-7.79422-10.2671-6.85101-14.9945-5.90779-18.0613-1.31127-17.1181 3.41609-16.1749 8.14251-11.5784 11.2103-6.85101 10.2671-2.12458 9.32388 0.943214 4.72642 0 0" fill="#643D22" transform="matrix(1 0 0 -1.00021 612.12 756.561)"/><path d="M0 0C-1.06935-5.36088-6.28244-8.8391-11.6433-7.76975-17.0042-6.69945-20.4834-1.48636-19.4131 3.87452-18.3428 9.2354-13.1297 12.7136-7.76975 11.6443-2.40887 10.574 1.07029 5.36088 0 0" fill="#643D22" transform="matrix(1 0 0 -1.00021 627.363 752.666)"/><path d="M0 0-3.63354-35.5654-5.98875-58.5715-56.4215-58.5715-53.1927-35.5654-51.3477-22.4159-48.488-2.03704-47.3169 6.2655C-47.1965 7.10987-46.9978 7.92601-46.7211 8.69978-44.7481 14.4052-38.9579 18.0877-32.7555 17.1793L-10.9279 14.0079C-4.12303 13.0214 0.694702 6.84724 0 0" fill="#5E6F64" transform="matrix(1 0 0 -1.00021 634.231 813.482)"/><path d="M0 0-1.0157 0.142141 2.80705 27.3607 3.82369 27.2186Z" fill="#445859" transform="matrix(1 0 0 -1.00021 583.392 835.974)"/><path d="M0 0-3.73897-36.566-54.1708-36.566-49.884-5.26863Z" fill="#445859" transform="matrix(1 0 0 -1.00021 631.98 835.492)"/><path d="M0 0 9.36248 0 15.3569 58.5743C15.3644 58.6374 15.3729 58.6986 15.3729 58.7616L6.96397 60.9568Z" fill="#445859" transform="matrix(1 0 0 -1.00021 618.876 872.068)"/><path d="M392.575 97.2244 304.563 97.2244 304.563 101.375 392.575 101.375Z" fill="#3E4147" transform="matrix(1 0 0 -1.00021 156 1055.88)"/><path d="M0 0-24.8521 0-19.7152 32.3413 4.23034 29.4345Z" fill="#F0E9EA" transform="matrix(1 0 0 -1.00021 517.688 934.211)"/><path d="M0 0-56.3829 0-54.9097 5.0333C-54.423 6.67498-53.6992 8.19899-52.7748 9.5771-50.8149 12.5084-47.9439 14.7667-44.5325 15.9687L-43.0056 16.5053C-41.507 17.0343-40.1016 17.7271-38.7988 18.5687-37.6787 19.2907-36.6385 20.1115-35.7009 21.0406-33.6526 23.0344-32.0382 25.4771-31.0009 28.2324L0.679641 28.2324 0.153437 9.5771Z" transform="matrix(1 0 0 -1.00021 519.629 954.487)"/><path d="M341.972 125.71 330.834 125.71 330.834 127.143 341.972 127.143Z" fill="#FDFAF7" transform="matrix(1 0 0 -1.00021 156 1055.88)"/><path d="M339.099 121.831 327.962 121.831 327.962 123.264 339.099 123.264Z" fill="#FDFAF7" transform="matrix(1 0 0 -1.00021 156 1055.88)"/><path d="M0 0C-0.171322 0-0.329466-0.0649518-0.443367-0.184501-0.560092-0.303109-0.620337-0.463135-0.614689-0.635398-0.598686-1.17949 0.163792-1.50989 0.529969-1.13054 0.646694-1.01193 0.70694-0.851905 0.701292-0.680582 0.689996-0.304991 0.37465 0 0 0M0.0866024-2.74869C-1.05429-2.74869-2.01162-1.82148-2.04739-0.680582-2.06434-0.117666-1.86195 0.412303-1.47412 0.81331-1.0863 1.21338-0.562916 1.43271 2.09018e-16 1.43271 1.14089 1.43271 2.09823 0.505495 2.13494-0.635398 2.15188-1.19737 1.94855-1.72828 1.56073-2.12929 1.1729-2.52936 0.649518-2.74869 0.0866024-2.74869" fill="#FDFAF7" transform="matrix(1 0 0 -1.00021 507.628 940.261)"/><path d="M0 0C-0.170381 0-0.328525-0.0649518-0.443367-0.184501-0.560092-0.303109-0.620337-0.463135-0.614689-0.635398-0.597745-1.18419 0.163792-1.50895 0.531852-1.13054 0.646694-1.01193 0.70694-0.851905 0.701292-0.680582 0.689996-0.311581 0.36806 0 0 0M0.0856611-2.74869C-1.05523-2.74869-2.01162-1.82148-2.04739-0.680582-2.06434-0.117666-1.86195 0.412303-1.47318 0.81331-1.0863 1.21338-0.562916 1.43271 0 1.43271 1.14089 1.43271 2.09823 0.505495 2.13494-0.635398 2.15188-1.19737 1.94855-1.72828 1.56073-2.12929 1.1729-2.52936 0.649518-2.74869 0.0856611-2.74869" fill="#FDFAF7" transform="matrix(1 0 0 -1.00021 500.902 940.261)"/><path d="M0 0-56.3829 0-54.9097 5.0333C-54.423 6.67498-53.6992 8.19899-52.7748 9.5771L0.153437 9.5771Z" fill="#F0E9EA" transform="matrix(1 0 0 -1.00021 519.629 954.487)"/><path d="M363.933 105.446 328.476 105.446 328.476 106.879 363.933 106.879Z" fill="#94C19B" transform="matrix(1 0 0 -1.00021 156 1055.88)"/><path d="M0 0-31.6438 0-30.1697 5.0333C-29.6839 6.67498-28.96 8.19899-28.0357 9.5771-26.0749 12.5084-23.2038 14.7667-19.7924 15.9687L-18.2656 16.5053C-16.767 17.0343-15.3616 17.7271-14.0597 18.5687-6.7211 15.1771-1.25574 8.24794 0 0" fill="#F0E9EA" transform="matrix(1 0 0 -1.00021 494.889 954.487)"/><path d="M0 0-0.723884 2.80517C-1.23314 4.78102 0.209917 6.65992 2.23566 6.65992L5.05965 6.65992C7.28967 6.65992 9.40296 5.5275 10.669 3.65236L13.1363 0Z" transform="matrix(1 0 0 -1.00021 488.627 926.248)"/><path d="M0 0-7.74715-68.3331-37.4396-68.3331-26.7912-13.2681C-25.1401-4.72642-17.3694 1.23503-8.69225 0.617513Z" fill="#643D22" transform="matrix(1 0 0 -1.00021 530.022 848.31)"/><path d="M0 0 70.1781-3.93006 65.6484-43.7211-18.8502-35.363-18.1413-16.5194C-17.7799-6.90749-9.60346 0.5375 0 0" fill="#643D22" transform="matrix(1 0 0 -1.00021 523.607 847.589)"/><path d="M0 0-24.8521 0-19.7152 32.3413 4.2294 29.4345Z" fill="#F0E9EA" transform="matrix(1 0 0 -1.00021 544.599 934.211)"/><path d="M0 0-56.3829 0-54.9088 5.0333C-54.423 6.67498-53.6982 8.19899-52.7748 9.5771-50.814 12.5084-47.9439 14.7667-44.5315 15.9687L-43.0047 16.5053C-41.5061 17.0343-40.1016 17.7271-38.7988 18.5687-37.6777 19.2907-36.6385 20.1115-35.7 21.0406-33.6516 23.0344-32.0373 25.4771-31.0009 28.2324L0.680582 28.2324 0.154378 9.5771Z" transform="matrix(1 0 0 -1.00021 546.539 954.487)"/><path d="M368.884 125.71 357.745 125.71 357.745 127.143 368.884 127.143Z" fill="#FDFAF7" transform="matrix(1 0 0 -1.00021 156 1055.88)"/><path d="M366.01 121.831 354.872 121.831 354.872 123.264 366.01 123.264Z" fill="#FDFAF7" transform="matrix(1 0 0 -1.00021 156 1055.88)"/><path d="M0 0C-0.171322 0-0.329466-0.0649518-0.444308-0.184501-0.560092-0.303109-0.619396-0.463135-0.613748-0.635398-0.599628-1.17949 0.163792-1.50989 0.529969-1.13054 0.646694-1.01193 0.70694-0.851905 0.701292-0.680582 0.689996-0.304991 0.37465 0 0 0M0.0875438-2.74869C-1.05335-2.74869-2.01162-1.82148-2.04739-0.680582-2.06434-0.117666-1.86195 0.412303-1.47318 0.81331-1.08535 1.21338-0.562916 1.43271 0 1.43271 1.14089 1.43271 2.09823 0.505495 2.13494-0.635398 2.15094-1.19737 1.94855-1.72828 1.56073-2.12929 1.1729-2.52936 0.649518-2.74869 0.0875438-2.74869" fill="#FDFAF7" transform="matrix(1 0 0 -1.00021 534.539 940.261)"/><path d="M0 0C-0.171322 0-0.329466-0.0649518-0.444308-0.184501-0.560092-0.303109-0.620337-0.463135-0.614689-0.635398-0.597745-1.18419 0.163792-1.50895 0.530911-1.13054 0.646694-1.01193 0.70694-0.851905 0.701292-0.680582 0.689996-0.311581 0.36806 0 0 0M0.0856611-2.74869C-1.05523-2.74869-2.01162-1.82148-2.04834-0.680582-2.06434-0.117666-1.86195 0.412303-1.47318 0.81331-1.0863 1.21338-0.562916 1.43271 2.09018e-16 1.43271 1.14089 1.43271 2.09823 0.505495 2.13494-0.635398 2.15094-1.19737 1.94761-1.72828 1.56073-2.12929 1.1729-2.52936 0.648577-2.74869 0.0856611-2.74869" fill="#FDFAF7" transform="matrix(1 0 0 -1.00021 527.813 940.261)"/><path d="M0 0-56.3829 0-54.9088 5.0333C-54.423 6.67498-53.6982 8.19899-52.7748 9.5771L0.154378 9.5771Z" fill="#F0E9EA" transform="matrix(1 0 0 -1.00021 546.539 954.487)"/><path d="M390.844 105.446 355.386 105.446 355.386 106.879 390.844 106.879Z" fill="#F1CCB4" transform="matrix(1 0 0 -1.00021 156 1055.88)"/><path d="M0 0-31.6438 0-30.1697 5.0333C-29.6839 6.67498-28.9591 8.19899-28.0357 9.5771-26.0749 12.5084-23.2038 14.7667-19.7924 15.9687L-18.2656 16.5053C-16.767 17.0343-15.3616 17.7271-14.0597 18.5687-6.7211 15.1771-1.25574 8.24794 0 0" fill="#F0E9EA" transform="matrix(1 0 0 -1.00021 521.799 954.487)"/><path d="M0 0-0.723884 2.80517C-1.23314 4.78102 0.210858 6.65992 2.23566 6.65992L5.05965 6.65992C7.28967 6.65992 9.40296 5.5275 10.669 3.65236L13.1363 0Z" transform="matrix(1 0 0 -1.00021 515.539 926.248)"/><path d="M0 0-11.3798-68.3331-44.1098-68.3331-33.4615-13.2681C-31.8095-4.72642-24.0388 1.23503-15.3616 0.617513Z" fill="#824D35" transform="matrix(1 0 0 -1.00021 563.603 848.31)"/><path d="M0 0-1.01193 0.168498 7.30755 50.0148 8.31948 49.8454Z" fill="#643D22" transform="matrix(1 0 0 -1.00021 543.63 916.938)"/><path d="M397.104 143.436 364.307 143.436 364.307 144.463 397.104 144.463Z" fill="#643D22" transform="matrix(1 0 0 -1.00021 156 1055.88)"/><path d="M0 0 70.1781-3.93006 65.6484-43.7211-18.8502-35.363-18.1413-16.5194C-17.7799-6.90749-9.60346 0.5375 0 0" fill="#824D35" transform="matrix(1 0 0 -1.00021 550.518 847.589)"/><path d="M488.816 207.913 392.575 207.913 392.575 157.894 488.816 157.894Z" transform="matrix(1 0 0 -1.00021 156 1055.88)"/><path d="M0 0-84.2293 0C-89.6505 0-94.0625-4.41108-94.0625-9.83314L-94.0625-53.9128 0-53.9128ZM-96.2417-9.83314C-96.2417-3.209-90.8535 2.17918-84.2293 2.17918L0 2.17918 0 38.7941C0 46.8124 6.52436 53.3358 14.5417 53.3358L28.7859 53.3358 28.7859 51.1566 14.5417 51.1566C7.7255 51.1566 2.17824 45.6112 2.17824 38.7941L2.17824 2.17918 2.40416 2.17918 2.40416 0 2.17824 0 2.17824-56.093-96.2417-56.093Z" fill="#3E4147" transform="matrix(1 0 0 -1.00021 643.727 842.941)"/><path d="M391.484 107.524 393.664 107.524 393.664 157.894 391.484 157.894Z" fill="#3E4147" transform="matrix(1 0 0 -1.00021 156 1055.88)"/><path d="M0 0C0 10.6559-8.75438 19.2945-19.5524 19.2945-30.3513 19.2945-39.1057 10.6559-39.1057 0-39.1057-10.6559-30.3513-19.2945-19.5524-19.2945-8.75438-19.2945 0-10.6559 0 0" fill="#3E4147" transform="matrix(1 0 0 -1.00021 569.892 961.785)"/><path d="M0 0C-7.09105 0-12.8398-5.67246-12.8398-12.6703-12.8398-19.6682-7.09105-25.3406 0-25.3406 7.09105-25.3406 12.8398-19.6682 12.8398-12.6703 12.8398-5.67246 7.09105 0 0 0M0-1.87419C6.04711-1.87419 10.9656-6.71734 10.9656-12.6703 10.9656-18.6233 6.04711-23.4664 0-23.4664-6.04711-23.4664-10.9656-18.6233-10.9656-12.6703-10.9656-6.71734-6.04711-1.87419 0-1.87419" fill="#FFFFFF" transform="matrix(1 0 0 -1.00021 550.34 949.112)"/><path d="M0 0 32.9419 26.6171 31.7633 28.0733-1.17855 1.45624Z" fill="#3E4147" transform="matrix(1 0 0 -1.00021 633.674 937.443)"/><path d="M477.084 118.206 518.56 118.206 518.56 120.079 477.084 120.079Z" fill="#3E4147" transform="matrix(1 0 0 -1.00021 156 1055.88)"/><path d="M0 0 1.17855 1.45624-31.7633 28.0733-32.9419 26.6171Z" fill="#3E4147" transform="matrix(1 0 0 -1.00021 665.437 964.066)"/><path d="M476.148 81.5004 478.021 81.5004 478.021 119.142 476.148 119.142Z" fill="#3E4147" transform="matrix(1 0 0 -1.00021 156 1055.88)"/><path d="M0 0 32.9409 26.6171 31.7624 28.0733-1.17855 1.45624Z" fill="#3E4147" transform="matrix(1 0 0 -1.00021 600.733 964.066)"/><path d="M435.609 118.206 477.084 118.206 477.084 120.079 435.609 120.079Z" fill="#3E4147" transform="matrix(1 0 0 -1.00021 156 1055.88)"/><path d="M0 0 1.17855 1.45624-31.7624 28.0733-32.9409 26.6171Z" fill="#3E4147" transform="matrix(1 0 0 -1.00021 632.495 937.443)"/><path d="M478.021 156.784 476.148 156.784 476.148 119.142 478.021 119.142Z" fill="#3E4147" transform="matrix(1 0 0 -1.00021 156 1055.88)"/><path d="M0 0C0-4.58993-3.77003-8.31195-8.41926-8.31195-13.0704-8.31195-16.8404-4.58993-16.8404 0-16.8404 4.59087-13.0704 8.31195-8.41926 8.31195-3.77003 8.31195 0 4.59087 0 0" fill="#3E4147" transform="matrix(1 0 0 -1.00021 641.505 936.715)"/><path d="M0 0C-23.553 0-42.6479-18.8492-42.6479-42.101-42.6479-65.3519-23.553-84.2002 0-84.2002 23.553-84.2002 42.647-65.3519 42.647-42.101 42.647-18.8492 23.553 0 0 0M0-5.76659C20.328-5.76659 36.8653-22.0657 36.8653-42.101 36.8653-62.1354 20.328-78.4345 0-78.4345-20.328-78.4345-36.8653-62.1354-36.8653-42.101-36.8653-22.0657-20.328-5.76659 0-5.76659" fill="#FFFFFF" transform="matrix(1 0 0 -1.00021 633.085 894.605)"/><path d="M0 0C-24.8172 0-44.9354-19.8602-44.9354-44.3593-44.9354-68.8574-24.8172-88.7186 0-88.7186 24.8163-88.7186 44.9354-68.8574 44.9354-44.3593 44.9354-19.8602 24.8163 0 0 0M0-3.13463C23.04-3.13463 41.7838-21.628 41.7838-44.3593 41.7838-67.0896 23.04-85.5839 0-85.5839-23.04-85.5839-41.7838-67.0896-41.7838-44.3593-41.7838-21.628-23.04-3.13463 0-3.13463" fill="#3E4147" transform="matrix(1 0 0 -1.00021 633.085 892.347)"/><path d="M0 0-18.5941 2.32885C-22.2248 10.6493-35.2623 30.1527-35.2623 30.1527L-36.3909 52.7738C-25.9967 51.697-17.1172 49.1563-12.9706 38.4873-8.32701 26.538-3.06497 9.76348 0 0" fill="#5E6F64" transform="matrix(1 0 0 -1.00021 658.796 852.11)"/><path d="M0 0C-14.8297-13.8592-27.1405-28.9055-27.1405-28.9055L-29.5164-41.5871-19.0685-32.8167C20.8345-20.6424 19.2728-3.81427 19.2728-3.81427Z" fill="#E6A978" transform="matrix(1 0 0 -1.00021 639.52 848.31)"/><path d="M0 0-8.5021-3.49987C-9.79078-4.02984-10.8253-5.03706-11.392-6.30974L-14.3449-12.9537C-14.857-14.1049-13.9665-15.3898-12.7089-15.3145-12.3211-15.291-11.953-15.1338-11.6687-14.8702Z" fill="#D6895E" transform="matrix(1 0 0 -1.00021 610.651 878.712)"/><path d="M0 0-12.7099-11.5238 6.80017-16.4206 11.4541-3.59683Z" fill="#E6A978" transform="matrix(1 0 0 -1.00021 613.727 875.923)"/><path d="M0 0-2.54536-9.99976C-2.89177-11.3063-1.61344-12.4538-0.352058-11.97 0.0404772-11.8184 0.361471-11.5228 0.544089-11.1444L2.97931-5.49078 9.38978-1.29715Z" fill="#E6A978" transform="matrix(1 0 0 -1.00021 601.017 887.449)"/><path d="M0 0-3.62507-5.79295C-4.36307-6.97244-3.93853-8.53128-2.7035-9.17421-1.67651-9.70795-0.413244-9.42837 0.291813-8.50869L5.41642-1.82053Z" fill="#E6A978" transform="matrix(1 0 0 -1.00021 606.184 888.317)"/><path d="M0 0-3.62507-5.79295C-4.36307-6.97244-3.93853-8.53128-2.7035-9.17421-1.67651-9.70889-0.413244-9.42837 0.291813-8.50869L5.41642-1.82053Z" fill="#E6A978" transform="matrix(1 0 0 -1.00021 610.75 889.5)"/><path d="M0 0-3.62507-5.79201C-4.36307-6.97244-3.93947-8.53128-2.70444-9.17421-1.67651-9.70795-0.413244-9.42837 0.290871-8.50869L5.41548-1.82053Z" fill="#E6A978" transform="matrix(1 0 0 -1.00021 615.111 890.526)"/><path d="M0 0 0 0 0.99687-0.420775C14.9898-6.33233 21.5913-22.4263 15.7814-36.4615L4.75184-70.9302-19.4394-66.5577-13.6691-22.334C-12.9687-13.125-7.88271-4.81302 0 0" fill="#EDB192" transform="matrix(1 0 0 -1.00021 737.132 814.126)"/><path d="M0 0C-0.336055-0.772833-0.723884-1.53625-1.15878-2.26014-1.31786-2.51806-1.48636-2.77504-1.65486-3.03391-2.43805-4.23222-3.3502-5.33264-4.39131-6.32386L-4.5391-6.47259C-7.33485-9.08008-10.9825-10.6559-14.7789-11.1708L-14.7789-11.231-27.8333-12.3004-27.7533-12.2712C-32.8685-12.6581-38.0721-11.0813-41.6012-7.33485L-29.8656-6.36434C-27.6949-8.67342-24.8794-10.14-21.8568-10.8535L-21.4699-10.7651C-19.5665-9.95175-17.7921-8.85133-16.2756-7.44405-16.2257-7.39415-16.1768-7.34521-16.1372-7.28496-15.0858-6.29468-14.1746-5.19426-13.4008-4.00442-13.0243-3.43962-12.6778-2.85506-12.3606-2.26014-12.1422-1.84407-11.9342-1.40729-11.7459-0.971453-9.04901 5.08413-9.11961 12.4397-11.9041 18.516-12.7767 20.4099-13.8573 22.1636-15.0961 23.8194-15.5423 24.4238-16.0083 25.0083-16.5034 25.5835-19.1796 28.785-22.3914 31.6099-25.6127 34.287-28.9431 37.0621-32.363 39.7976-35.4063 42.8607-36.9821 44.4468-38.459 46.1215-39.7571 47.9354-40.0263 48.3119-40.2833 48.6791-40.5403 49.0659-40.69 49.3032-40.8387 49.531-40.9865 49.7795-43.128 53.268-44.5259 57.3713-44.6342 61.4058-44.7142 64.0425-44.2482 66.65-43.0687 69.0391L-31.3322 70.0106C-32.5013 67.6215-32.9776 65.014-32.8986 62.3782-32.7894 58.3333-31.3924 54.2291-29.2509 50.7406-29.1022 50.5024-28.9535 50.2642-28.7953 50.0364-28.5468 49.6505-28.2898 49.274-28.0225 48.9069-26.7234 47.0929-25.2559 45.4183-23.6707 43.8312-20.6274 40.769-17.2075 38.0326-13.8771 35.2576-10.3377 32.314-6.80017 29.1916-3.98371 25.5835-3.76627 25.3256-3.55823 25.0582-3.35961 24.7909-2.12082 23.1247-1.04017 21.371-0.168498 19.4874 2.62725 13.4111 2.68656 6.04617 0 0" fill="#3E4147" transform="matrix(1 0 0 -1.00021 764.271 969.092)"/><path d="M0 0C-0.336055-0.772833-0.723884-1.53625-1.15878-2.26014L-12.3606-2.26014C-12.1422-1.84407-11.9342-1.40729-11.7459-0.971453-9.04901 5.08413-9.11961 12.4397-11.9041 18.516-12.7767 20.4099-13.8573 22.1636-15.0961 23.8194-15.5423 24.4238-16.0083 25.0083-16.5034 25.5835L-3.98371 25.5835C-3.76627 25.3256-3.55823 25.0582-3.35961 24.7909-2.12082 23.1247-1.04017 21.371-0.168498 19.4874 2.62725 13.4111 2.68656 6.04617 0 0" fill="#002438" transform="matrix(1 0 0 -1.00021 764.271 969.092)"/><path d="M0 0-0.613748-2.39945-1.57579-6.13654-2.43805-9.51591-3.39915-13.253-5.36182-20.9051C-6.86889-26.7536-12.1121-30.6591-17.9107-30.6591-18.8436-30.6591-19.7943-30.55-20.746-30.341-27.0595-28.9337-31.3717-23.0852-30.8474-16.6437L-29.8261-6.06688-29.4486-2.17165-29.2509-0.0988398-28.8744 3.76627-28.4574 8.12745Z" fill="#3E4147" transform="matrix(1 0 0 -1.00021 746.151 877.573)"/><path d="M0 0-0.961099-3.73708-28.6372 2.29967-28.2597 6.16572Z" fill="#002438" transform="matrix(1 0 0 -1.00021 745.538 879.972)"/><path d="M0 0-0.961099-3.73708-27.388 3.44904-27.0106 7.34521Z" fill="#002438" transform="matrix(1 0 0 -1.00021 743.713 887.091)"/><path d="M0 0C-10.8743-5.84472-17.9229-40.5026-17.9229-40.5026L9.12997-42.7035Z" fill="#E09A78" transform="matrix(1 0 0 -1.00021 703.705 752.126)"/><path d="M0 0 0.441484-8.05309 1.25762-23.0664 1.50425-27.6092 1.54943-28.3651 4.44591-29.0156 4.4525-29.0156 31.4103-35.0928 30.4219-18.4557 30.4078-18.179 29.6143-4.75278 22.8414-3.66743 22.19-3.56294 22.0253-3.53282 22.0187-3.53282 0.26169-0.0451839Z" fill="#A36955" transform="matrix(1 0 0 -1.00021 707.235 782.769)"/><path d="M0 0C0 0 7.64643 11.3958 27.662 18.6224L19.7849 36.2478 14.7026 36.2177-14.6377 34.4038-18.0594 26.0739C-18.8332 23.3874-13.6079 9.77761 0 0" fill="#824D35" transform="matrix(1 0 0 -1.00021 722.939 837.177)"/><path d="M0 0-0.0160026 1.02605 37.4772 1.5965 37.4932 0.570447Z" fill="#643D22" transform="matrix(1 0 0 -1.00021 707.242 807.156)"/><path d="M0 0-5.84002-35.3178-5.85979-35.6247-39.9002-37.0658-40.9564-26.8458-41.8007-18.7202-42.07-16.1561-42.1377-15.5028-43.9046 1.51743-44.8459 13.4752-31.3313 18.4416-13.6201 17.2217C-10.4601 17.0098-7.60784 15.8191-5.33076 13.9844-1.32539 10.7472 0.91215 5.50396 0 0" fill="#A36955" transform="matrix(1 0 0 -1.00021 748.552 765.6)"/><path d="M0 0C0 0-13.3791-4.12021-24.6751 0.422658-24.7805 0.461252-24.8954 0.50926-25.0018 0.557268-25.03 0.557268-25.0592 0.566681-25.0789 0.586449-28.1232 1.86289-30.341 3.61095-31.6579 5.95486L-31.6579 5.96427C-32.5606 7.58807-33.0313 9.50933-33.0313 11.7666-33.0219 16.0883-31.2927 21.6497-27.6234 28.7859-25.6447 32.6378-23.1097 36.9407-19.959 41.7621L-10.7961 22.5816-3.4481 7.21342-2.81364 5.88803Z" fill="#A36955" transform="matrix(1 0 0 -1.00021 732.271 792.874)"/><path d="M0 0-5.84002-35.3178-5.85979-35.6247-39.9002-37.0658-40.9564-26.8458C-41.0618-26.8082-41.1766-26.7592-41.2821-26.7112-41.3113-26.7112-41.3404-26.7018-41.3602-26.683-44.4045-25.4056-46.6222-23.6575-47.9392-21.3136L-47.9392-21.3042C-48.8419-19.6804-49.3126-17.7601-49.3126-15.5028L-34.0018-15.5028-27.0774-4.68689-16.2813 12.1592-5.33076 13.9844C-1.32539 10.7472 0.91215 5.50396 0 0" fill="#9A5B45" transform="matrix(1 0 0 -1.00021 748.552 765.6)"/><path d="M0 0 7.30473 0.324759C9.97905 0.443367 12.0509 2.70633 11.9323 5.38065L11.2856 19.8517-6.04052 19.0845-5.40889 4.95234C-5.28275 2.09164-2.8607-0.126138 0 0" fill="#EDB192" transform="matrix(1 0 0 -1.00021 719.708 756.196)"/><path d="M0 0 0.112018-2.57548C7.50806-3.0245 15.4209 2.2319 12.6581 13.8253L-0.583625 13.2408Z" fill="#E09A78" transform="matrix(1 0 0 -1.00021 714.136 747.682)"/><path d="M0 0 0 0C-8.42303 0.513967-15.6694-5.89744-16.1834-14.3214L-16.4912-19.3481C-16.9656-27.1339-11.0409-33.8305-3.25512-34.3059L10.7556-35.1615C12.0792-35.2425 13.2182-34.2343 13.2991-32.9099L14.3214-16.1843C14.8354-7.76033 8.42303-0.514908 0 0" fill="#EDB192" transform="matrix(1 0 0 -1.00021 717.423 708.779)"/><path d="M0 0C-0.0404772-1.20114 0.569505-2.19707 1.36399-2.22436 2.15753-2.25072 2.83435-1.29904 2.87482-0.0978984 2.9153 1.10418 2.30438 2.09917 1.51084 2.12647 0.717294 2.15377 0.0414186 1.20114 0 0" fill="#303030" transform="matrix(1 0 0 -1.00021 705.381 725.172)"/><path d="M0 0C-0.0414186-1.20114 0.568564-2.19707 1.36305-2.22436 2.15659-2.25072 2.83341-1.29904 2.87388-0.0978984 2.91436 1.10418 2.30344 2.09917 1.50989 2.12647 0.716353 2.15377 0.0404772 1.20114 0 0" fill="#303030" transform="matrix(1 0 0 -1.00021 715.999 726.022)"/><path d="M0 0C0 0-18.3814 4.59652-14.3289 20.826 9.34459 23.7244 10.5024 2.48229 0 0" transform="matrix(1 0 0 -1.00021 729.586 729.633)"/><path d="M0 0C0 0-5.1086-15.964 0.372767-18.7871 5.8532-21.6101 12.1159-13.7547 17.4184-19.2286 17.4184-19.2286 18.3851-15.4256 10.2916-11.0672L7.64455 3.97336Z" transform="matrix(1 0 0 -1.00021 729.62 736.897)"/><path d="M0 0C3.39256 7.10705 6.70981 7.72644 9.4632 6.43211 14.5087 4.05902 12.8548-7.79799 3.60906-5.69035Z" fill="#EDB192" transform="matrix(1 0 0 -1.00021 726.011 731.205)"/><path d="M0 0C0 0-15.4736 0.577036-19.622-16.4799-20.3742-2.10387-11.1632 1.17478 0 0" transform="matrix(1 0 0 -1.00021 720.742 708.556)"/><path d="M0 0C3.54411 0.150613 3.64577 2.05493 0.915915 2.34768-2.0201 2.66303-4.41014-0.188266 0 0" transform="matrix(1 0 0 -1.00021 706.072 718.218)"/><path d="M0 0C3.51211-0.498905 3.96112 1.35363 1.3301 2.14059-1.49954 2.98684-4.36966 0.620337 0 0" transform="matrix(1 0 0 -1.00021 718.528 718.62)"/><path d="M0 0-0.203327 1.33763C-1.54755 1.13242-2.46346 1.90808-2.87294 2.7035-3.27583 3.48763-3.37561 4.66806-2.44275 5.62822-1.2482 6.8576 0 8.30254 1.04488 10.5231L-0.178853 11.0992C-1.13995 9.05749-2.30061 7.71515-3.41232 6.57049-4.5937 5.35523-4.8535 3.59494-4.07502 2.08411-3.29089 0.559151-1.69063-0.257925 0 0" fill="#E09A78" transform="matrix(1 0 0 -1.00021 710.082 733.773)"/><path d="M0 0 4.74807 4.13056 3.85946 5.15285-0.888616 1.02134Z" fill="#E09A78" transform="matrix(1 0 0 -1.00021 730.604 733.722)"/><path d="M0 0C-1.1183 0-2.22719 0.562916-2.86541 1.4873L-1.51366 2.42016C-1.13901 1.87607-0.412303 1.5692 0.23345 1.65957 0.885792 1.75558 1.48448 2.26014 1.68875 2.88706L3.25136 2.37968C2.85506 1.16254 1.73864 0.21933 0.470665 0.0348292 0.314405 0.011296 0.157202 0 0 0" fill="#E38B7A" transform="matrix(1 0 0 -1.00021 712.897 737.296)"/><path d="M0 0C9.77007-18.211 5.74965-32.6623 1.35175-41.3941L-28.063-37.2918-24.228-3.84345Z" fill="#824D35" transform="matrix(1 0 0 -1.00021 749.416 815.898)"/><path d="M0 0C-0.641046 0-10.9938 0.211799-14.4861 12.7061L-13.4977 12.9828C-10.1268 0.921563-0.0753065 1.03452 0.00564799 1.02699L0.0310639 0Z" fill="#643D22" transform="matrix(1 0 0 -1.00021 747.019 819.097)"/><path d="M0 0-4.24823 4.43367-8.68848-1.07971C-9.37566-1.93255-9.32294-3.16381-8.56517-3.95453-7.8074-4.74619-6.57896-4.85162-5.69788-4.20116Z" fill="#E09A78" transform="matrix(1 0 0 -1.00021 666.332 792.307)"/><path d="M0 0 0.0913091 1.63603C0.164733 2.94731 1.2868 3.94982 2.59713 3.8764L23.1389 2.72609C24.4492 2.65267 25.4517 1.5306 25.3783 0.21933L25.287-1.4167C25.2136-2.72704 24.0915-3.72955 22.7812-3.65613L2.23943-2.50582C0.929094-2.4324-0.0734238-1.31033 0 0" transform="matrix(1 0 0 -1.00021 654.284 791.419)"/><path d="M0 0-19.3971 4.63229-17.7488-6.93855-7.23507-7.55983C-3.00755-7.80928 0.434895-4.21151 0 0" fill="#EDB192" transform="matrix(1 0 0 -1.00021 680.263 785.064)"/><path d="M0 0-1.62191-9.25893 2.76187-15.4576C3.12804-15.9763 3.78886-16.1937 4.39131-15.9932 5.14626-15.7428 5.55479-14.9276 5.30534-14.1727L3.69755-9.33141 8.85133-2.90495Z" fill="#EDB192" transform="matrix(1 0 0 -1.00021 660.484 781.104)"/><path d="M0 0-3.3389-7.67091 0.324759-14.3214C0.630692-14.8768 1.26421-15.1667 1.88454-15.0359 2.66208-14.8711 3.15911-14.1068 2.99532-13.3283L1.94008-8.33737 7.77916-2.52747Z" fill="#EDB192" transform="matrix(1 0 0 -1.00021 665.702 782.489)"/><path d="M0 0-0.176029 0.178853C-0.71447 0.724825-1.59367 0.730473-2.1387 0.192973L-4.27176-1.90996C-4.81773-2.4484-4.82338-3.32761-4.28588-3.87358L-4.10797-4.05243C-3.57047-4.5984-2.69127-4.60499-2.14529-4.06561L-0.0131786-1.96362C0.531852-1.42518 0.538441-0.545972 0 0" fill="#EDB192" transform="matrix(1 0 0 -1.00021 674.247 790.097)"/><path d="M0 0-0.872614 4.85539-7.64173 0.157202C-8.34961-0.317229-8.53787-1.27644-8.06344-1.98433-7.58901-2.69315-6.62885-2.88236-5.92097-2.40698Z" fill="#EDB192" transform="matrix(1 0 0 -1.00021 661.738 785.287)"/><path d="M0 0 0.237215 0.0969571C0.961099 0.391594 1.31033 1.21714 1.01475 1.94197L-1.01193 6.92443C-1.30751 7.64831-2.134 7.99755-2.85694 7.70291L-3.0951 7.60595C-3.81898 7.31132-4.16727 6.48483-3.87264 5.76095L-1.84501 0.777539C-1.54943 0.0536559-0.724825-0.294637 0 0" fill="#EDB192" transform="matrix(1 0 0 -1.00021 657.335 792.651)"/><path d="M0 0 0.228743 0.116725C0.924387 0.471607 1.20114 1.32445 0.846257 2.02104L-1.57579 6.76723C-1.93161 7.46381-2.78352 7.73962-3.4801 7.38474L-3.7079 7.26802C-4.40543 6.91219-4.68218 6.05935-4.32636 5.3637L-1.90431 0.617513C-1.54943-0.0781305-0.695644-0.354882 0 0" fill="#EDB192" transform="matrix(1 0 0 -1.00021 672.252 797.184)"/><path d="M0 0 53.526-9.84726C47.4403-28.2823 17.5022-28.6419-4.21057-5.19426Z" fill="#EDB192" transform="matrix(1 0 0 -1.00021 680.263 785.064)"/><path d="M0 0C5.06248 7.47134 10.3546 23.1577 13.3876 33.0304 14.8627 37.834 12.1771 42.9228 7.38286 44.4271 2.86918 45.8447-1.98056 43.5846-3.79733 39.2177L-19.238 2.11988Z" fill="#EDB192" transform="matrix(1 0 0 -1.00021 733.789 794.914)"/><path d="M0 0-1.02699 0-1.02699 27.2007-6.8896 31.1552-6.31727 32.0062 0 27.7476Z" fill="#643D22" transform="matrix(1 0 0 -1.00021 721.865 853.197)"/><path d="M0 0-0.969571 0.334172C5.46443 18.9518 3.62695 34.3369-7.52782 55.2081L-6.62132 55.692C4.68312 34.5355 6.53943 18.9217 0 0" fill="#643D22" transform="matrix(1 0 0 -1.00021 746.633 856.823)"/><path d="M0 0-30.7288 4.24729-30.5876 5.26392 0.140258 1.01664Z" fill="#643D22" transform="matrix(1 0 0 -1.00021 752.01 853.706)"/></g></svg>